<?xml version="1.0" encoding="utf-8"?>
<!-- Generator: Adobe Illustrator 19.2.0, SVG Export Plug-In . SVG Version: 6.00 Build 0)  -->
<svg version="1.1" id="Capa_1" xmlns="http://www.w3.org/2000/svg" xmlns:xlink="http://www.w3.org/1999/xlink" x="0px" y="0px"
	 viewBox="0 0 286.4 286.4" style="enable-background:new 0 0 286.4 286.4;" xml:space="preserve">
<style type="text/css">
	.st0{fill:#F43F2A;}
</style>
<g id="Add">
	<path class="st0" d="M244.4,219.1l-75.9-75.9l75.9-75.9c7-7,7-18.3,0-25.3s-18.3-7-25.3,0l-75.9,75.9L67.3,41.9c-7-7-18.3-7-25.3,0
		s-7,18.3,0,25.3l75.9,75.9l-75.9,75.9c-7,7-7,18.3,0,25.3c7,7,18.3,7,25.3,0l75.9-75.9l75.9,75.9c7,7,18.3,7,25.3,0
		C251.4,237.4,251.4,226.1,244.4,219.1z"/>
</g>
</svg>
