<svg xmlns:dc="http://purl.org/dc/elements/1.1/" xmlns:cc="http://creativecommons.org/ns#" xmlns:rdf="http://www.w3.org/1999/02/22-rdf-syntax-ns#" xmlns:svg="http://www.w3.org/2000/svg" xmlns="http://www.w3.org/2000/svg" viewBox="0 0 57.170971 47.196411" height="47.196411" width="57.170971" id="svg10" version="1.1">
  <path
     id="path20"
     d="m 18.170977,46.196411 c 0,-0.55 2.25,-1 4.999995,-1 h 5 v -3.5 -3.5 H 15.742406 c -9.9653688,0 -12.7400118,-0.31144 -14.0000008,-1.571429 -2.32320695,-2.323207 -2.32320695,-32.5339348 0,-34.8571424 2.35712,-2.35711947 51.5000268,-2.35711947 53.8571468,0 1.29644,1.2964393 1.57142,4.3463203 1.57142,17.4285714 0,13.082251 -0.27498,16.132132 -1.57142,17.428571 -1.25999,1.259989 -4.03464,1.571429 -14,1.571429 h -12.42858 v 3.5 3.5 h 5 c 2.75,0 5,0.45 5,1 0,0.603175 -4.16666,1 -10.5,1 -6.33333,0 -10.499995,-0.396825 -10.499995,-1 z m 36.813355,-13.75 0.31336,-3.25 H 28.734332 2.1709772 v 2.833333 c 0,1.558334 0.30743,3.140764 0.683178,3.516512 0.375748,0.375748 12.1882478,0.563248 26.2499968,0.416666 l 25.56682,-0.266511 z m -27.26057,0.83541 c -0.32197,-0.520967 -0.15916,-1.210648 0.3618,-1.532624 0.52097,-0.321975 1.21065,-0.159164 1.53263,0.361804 0.32197,0.520967 0.15916,1.210648 -0.36181,1.532624 -0.52096,0.321975 -1.21064,0.159164 -1.53262,-0.361804 z m 27.22799,-18.33541 -0.28078,-12.25 h -26 -25.9999948 l -0.280779,12.25 -0.280779,12.25 h 26.5615528 26.56156 z"
     style="fill:#f65f0d" />
</svg>
