<svg xmlns:dc="http://purl.org/dc/elements/1.1/" xmlns:cc="http://creativecommons.org/ns#" xmlns:rdf="http://www.w3.org/1999/02/22-rdf-syntax-ns#" xmlns:svg="http://www.w3.org/2000/svg" xmlns="http://www.w3.org/2000/svg" viewBox="0 0 35.165859 59.058132" height="59.058132" width="35.165859" id="svg30" version="1.1">
  <path
     id="path40"
     d="m 1.2829305,57.85813 c -1.710574,-1.710574 -1.710574,-54.8894253 0,-56.5999993 1.677507,-1.6775076 30.9224915,-1.6775076 32.6000005,0 1.71057,1.710574 1.71057,54.8894253 0,56.5999993 -0.827373,0.827373 -5.88889,1.2 -16.3,1.2 -10.4111115,0 -15.4726275,-0.372627 -16.3000005,-1.2 z m 31.7999995,-28.3 V 2.0581307 h -15.5 -15.4999995 v 27.4999993 27.5 h 15.4999995 15.5 z M 16.635716,52.14354 c -0.321975,-0.520967 -0.159164,-1.210648 0.361804,-1.532624 0.520967,-0.321975 1.210648,-0.159164 1.532624,0.361804 0.321975,0.520967 0.159164,1.210648 -0.361804,1.532624 -0.520967,0.321975 -1.210648,0.159164 -1.532624,-0.361804 z M 10.08293,7.0581307 c 0,-0.5777778 3.166667,-1 7.5,-1 4.333333,0 7.5,0.4222222 7.5,1 0,0.5777778 -3.166667,1 -7.5,1 -4.333333,0 -7.5,-0.4222222 -7.5,-1 z"
     style="fill:#f65f0d" />
</svg>
