<svg xmlns:dc="http://purl.org/dc/elements/1.1/" xmlns:cc="http://creativecommons.org/ns#" xmlns:rdf="http://www.w3.org/1999/02/22-rdf-syntax-ns#" xmlns:svg="http://www.w3.org/2000/svg" xmlns="http://www.w3.org/2000/svg" xmlns:sodipodi="http://sodipodi.sourceforge.net/DTD/sodipodi-0.dtd" xmlns:inkscape="http://www.inkscape.org/namespaces/inkscape" version="1.1" id="svg70" width="60" height="60" viewBox="0 0 60.000003 60.000003" sodipodi:docname="3.svg" inkscape:version="0.92.2 (5c3e80d, 2017-08-06)">
  <path
     style="fill:#939393;stroke-width:0.12096773"
     d="m 22.98387,57.10664 v -2.89337 l -0.81653,-0.26944 c -1.03429,-0.34131 -3.15768,-1.24188 -3.68232,-1.56175 -0.22019,-0.13424 -0.48261,-0.24428 -0.58317,-0.24453 -0.10055,-2.4e-4 -1.07996,0.89792 -2.17646,1.99593 l -1.99363,1.99638 -4.93002,-4.92892 -4.93003,-4.92893 1.9956,-1.9982 C 6.96489,43.17481 7.8627,42.19456 7.86245,42.09547 7.8622,41.99637 7.75216,41.73516 7.61791,41.51496 7.29805,40.99033 6.39748,38.86694 6.05617,37.83266 L 5.78673,37.01612 H 2.89336 0 V 30 22.98387 H 2.89336 5.78673 L 6.05617,22.16733 C 6.39748,21.13305 7.29805,19.00966 7.61791,18.48502 7.75216,18.26483 7.8622,18.0024 7.86245,17.90185 7.86271,17.80129 6.96453,16.82189 5.86652,15.72539 l -1.99638,-1.99363 4.92892,-4.93003 4.92893,-4.93002 1.99819,1.9956 c 1.099,1.09757 2.07926,1.99539 2.17834,1.99514 0.0991,-2.6e-4 0.36031,-0.1103 0.5805,-0.24454 0.52464,-0.31986 2.64803,-1.22044 3.68232,-1.56174 L 22.98387,5.78672 V 2.89336 0 H 30 37.01613 v 2.89336 2.89336 l 0.81653,0.26945 c 1.03428,0.3413 3.15767,1.24188 3.68232,1.56174 0.22019,0.13424 0.48261,0.24429 0.58317,0.24454 0.10055,2.5e-4 1.07996,-0.89792 2.17646,-1.99593 l 1.99363,-1.99639 4.93002,4.92893 4.93003,4.92893 -1.99559,1.99818 c -1.09758,1.09901 -1.9954,2.07927 -1.99515,2.17835 2.4e-4,0.0991 0.11029,0.36031 0.24454,0.5805 0.31986,0.52464 1.22043,2.64803 1.56174,3.68231 l 0.26945,0.81654 H 57.10664 60 V 30 37.01612 h -2.89336 -2.89336 l -0.26945,0.81654 c -0.34131,1.03428 -1.24188,3.15767 -1.56174,3.6823 -0.13425,0.2202 -0.24429,0.48263 -0.24454,0.58318 -2.4e-4,0.10056 0.89791,1.07996 1.99593,2.17646 l 1.99638,1.99364 -4.92892,4.93002 -4.92893,4.93003 -1.99819,-1.9956 c -1.09901,-1.09757 -2.07925,-1.99539 -2.17834,-1.99514 -0.0991,2.4e-4 -0.36031,0.11029 -0.5805,0.24453 -0.52465,0.31987 -2.64804,1.22044 -3.68232,1.56175 l -0.81653,0.26944 V 57.10664 60 H 30 22.98387 Z m 12.09677,-1.74492 v -2.7028 l 0.99799,-0.27193 c 1.96207,-0.53462 4.51381,-1.61452 5.9351,-2.51174 l 0.47946,-0.30267 1.91905,1.91625 1.91906,1.91624 3.56792,-3.56638 3.56792,-3.56638 -1.90191,-1.90471 -1.90192,-1.9047 0.45769,-0.81815 c 1.03983,-1.85876 2.185,-4.7235 2.44263,-6.11048 l 0.0843,-0.45363 h 2.70831 2.7083 V 30 24.91935 h -2.71665 -2.71665 l -0.25143,-0.87701 c -0.6242,-2.17731 -1.64796,-4.61612 -2.56929,-6.12061 l -0.24794,-0.40486 1.92152,-1.92435 1.92152,-1.92433 -3.59738,-3.59737 -3.59737,-3.59737 -1.90649,1.9037 -1.9065,1.9037 -1.75336,-0.88279 C 38.83787,8.48844 37.80563,8.08175 36.07866,7.59916 L 35.08067,7.32029 V 4.62788 1.93548 h -5.08064 -5.08065 v 2.70279 2.7028 L 23.9214,7.613 c -1.96207,0.53463 -4.51382,1.61452 -5.9351,2.51174 l -0.47946,0.30267 -1.91905,-1.91624 -1.91905,-1.91625 -3.56792,3.56639 -3.56793,3.56638 1.90191,1.9047 1.90192,1.9047 -0.45769,0.81814 C 8.8392,20.214 7.69404,23.07875 7.4364,24.46573 L 7.3521,24.91935 H 4.64379 1.93548 V 30 35.08064 h 2.70583 2.70583 l 0.2082,0.75605 c 0.56139,2.03866 1.53592,4.39728 2.46584,5.96802 l 0.36422,0.6152 -1.86609,1.86317 c -1.02636,1.02475 -1.86609,1.91862 -1.86609,1.98638 0,0.0678 1.6057,1.72821 3.56822,3.68989 l 3.56822,3.56668 1.90624,-1.90344 1.90624,-1.90345 1.75336,0.88279 c 1.80665,0.90962 2.83889,1.31632 4.56586,1.7989 l 0.99798,0.27887 v 2.69241 2.6924 h 5.08065 5.08064 z M 27.82258,45.30404 c -3.46856,-0.51717 -6.21921,-1.90764 -8.7191,-4.40753 -2.57122,-2.57121 -3.98785,-5.45519 -4.45573,-9.07099 -0.3718,-2.87332 0.19452,-6.13684 1.51989,-8.75859 1.40399,-2.77727 4.12202,-5.4953 6.8993,-6.89929 2.62174,-1.32537 5.88527,-1.89169 8.75858,-1.51989 3.6158,0.46788 6.49978,1.88451 9.071,4.45573 2.57122,2.57121 3.98785,5.45519 4.45572,9.07099 0.30725,2.37442 -0.009,4.96033 -0.89501,7.31372 -1.50622,4.00163 -4.9674,7.46282 -8.96904,8.96903 -2.44609,0.92071 -5.15965,1.22048 -7.66561,0.84682 z m 4.19415,-1.93658 c 1.33143,-0.21594 2.85953,-0.68315 3.8502,-1.1772 3.32392,-1.65763 5.93106,-4.65703 7.00294,-8.0566 0.87555,-2.77685 0.87555,-5.49048 0,-8.26733 -1.27636,-4.04808 -4.68812,-7.45984 -8.73621,-8.73621 -2.77685,-0.87554 -5.49047,-0.87554 -8.26732,0 -4.0481,1.27637 -7.45985,4.68813 -8.73621,8.73621 -0.87555,2.77685 -0.87555,5.49048 0,8.26733 1.2782,4.05391 4.68738,7.45959 8.74937,8.74037 2.0768,0.65483 4.12619,0.8196 6.13723,0.49343 z"
     id="path80"
     inkscape:connector-curvature="0" />
</svg>
