<?xml version="1.0" encoding="utf-8"?>
<!-- Generator: Adobe Illustrator 19.2.0, SVG Export Plug-In . SVG Version: 6.00 Build 0)  -->
<svg version="1.1" id="Слой_1" xmlns="http://www.w3.org/2000/svg" xmlns:xlink="http://www.w3.org/1999/xlink" x="0px" y="0px"
	 viewBox="0 0 480 480" style="enable-background:new 0 0 480 480;" xml:space="preserve">
<style type="text/css">
	.st0{fill:url(#SVGID_1_);}
	.st1{fill:url(#SVGID_2_);}
	.st2{fill:url(#SVGID_3_);}
	.st3{fill:url(#SVGID_4_);}
	.st4{fill:url(#SVGID_5_);}
	.st5{fill:url(#SVGID_6_);}
	.st6{fill:url(#SVGID_7_);}
</style>
<linearGradient id="SVGID_1_" gradientUnits="userSpaceOnUse" x1="96.3018" y1="411.6901" x2="383.6982" y2="124.2937">
	<stop  offset="0" style="stop-color:#F43F2A"/>
	<stop  offset="1" style="stop-color:#E8744F"/>
</linearGradient>
<path class="st0" d="M119.8,192h2c4,0,7.4,3,7.8,7l6.3,57l16,144l8.1,73c0.4,4,3.8,7,7.8,7h144.3c4,0,7.4-3,7.8-7l8.1-73l16-144
	l6.3-57c0.4-4,3.8-7,7.8-7h2c4.3,0,7.8-3.5,7.8-7.8v-32.3c0-4.3-3.5-7.8-7.8-7.8h-2c-3.8,0-7.1-2.7-7.7-6.5
	c-4.3-24.8-20.3-74-80.2-86.5c-3.6-0.8-6.2-4-6.2-7.7V7.8c0-4.3-3.5-7.8-7.8-7.8h-32.3c-4.3,0-7.8,3.5-7.8,7.8v35.5
	c0,3.7-2.6,6.9-6.2,7.7c-60,12.5-76,61.7-80.2,86.5c-0.6,3.8-3.9,6.5-7.7,6.5h-2c-4.3,0-7.8,3.5-7.8,7.8v32.3
	C112,188.5,115.5,192,119.8,192z M297.8,464H182.2c-4,0-7.4-3-7.8-7l-5.4-48.3c-0.5-4.6,3.1-8.7,7.8-8.7h126.4
	c4.7,0,8.3,4.1,7.8,8.7l-5.4,48.3C305.2,461,301.8,464,297.8,464z M306.7,384H173.3c-4,0-7.4-3-7.8-7L153,264.7
	c-0.5-4.6,3.1-8.7,7.8-8.7h158.4c4.7,0,8.3,4.1,7.8,8.7L314.5,377C314.1,381,310.7,384,306.7,384z M322.7,240H157.3
	c-4,0-7.4-3-7.8-7l-3.6-32.3c-0.5-4.6,3.1-8.7,7.8-8.7h172.6c4.7,0,8.3,4.1,7.8,8.7l-3.6,32.3C330.1,237,326.7,240,322.7,240z
	 M239.8,16h0.3c4.3,0,7.8,3.5,7.8,7.8v16.3c0,4.4-3.6,7.8-7.9,7.8c0,0-0.1,0-0.1,0s-0.1,0-0.1,0c-4.4,0-7.9-3.5-7.9-7.8V23.8
	C232,19.5,235.5,16,239.8,16z M240,64c68.9,0,88.4,44.9,93.8,70.6c1,4.9-2.7,9.4-7.7,9.4H153.8c-5,0-8.7-4.6-7.7-9.4
	C151.6,108.8,171.1,64,240,64z M135.8,160h208.3c4.3,0,7.8,3.5,7.8,7.8v0.3c0,4.3-3.5,7.8-7.8,7.8H135.8c-4.3,0-7.8-3.5-7.8-7.8
	v-0.3C128,163.5,131.5,160,135.8,160z"/>
<linearGradient id="SVGID_2_" gradientUnits="userSpaceOnUse" x1="229.7369" y1="127.031" x2="277.7077" y2="79.0603">
	<stop  offset="0" style="stop-color:#F43F2A"/>
	<stop  offset="1" style="stop-color:#E8744F"/>
</linearGradient>
<path class="st1" d="M240,80c-12.1-0.3-24.2,1.7-35.5,5.9c-4.4,1.6-6.4,6.8-4.2,11l0.1,0.2c1.8,3.6,6.1,5.1,9.8,3.7
	c9.5-3.5,19.6-5.2,29.8-4.8c24.7,0,42.6,7.4,53.2,22c2.3,3.2,6.6,4.2,10.1,2.3l0.2-0.1c4.2-2.3,5.5-7.7,2.6-11.6
	C295.7,94.2,276.2,80,240,80z"/>
<linearGradient id="SVGID_3_" gradientUnits="userSpaceOnUse" x1="174.5332" y1="119.2437" x2="184.5984" y2="109.1784">
	<stop  offset="0" style="stop-color:#F43F2A"/>
	<stop  offset="1" style="stop-color:#E8744F"/>
</linearGradient>
<path class="st2" d="M175.2,119.5l2.4,1.3c3,1.6,6.7,0.7,8.6-2.1c0,0,0-0.1,0.1-0.1c1.9-2.8,1.5-6.5-1-8.8l-2-1.8
	c-2.9-2.7-7.6-2.2-9.9,1c-0.2,0.3-0.4,0.5-0.6,0.8C170.6,113.2,171.8,117.7,175.2,119.5z"/>
<linearGradient id="SVGID_4_" gradientUnits="userSpaceOnUse" x1="206.0742" y1="353.9258" x2="222.0629" y2="337.9371">
	<stop  offset="0" style="stop-color:#F43F2A"/>
	<stop  offset="1" style="stop-color:#E8744F"/>
</linearGradient>
<path class="st3" d="M240,359.2L240,359.2c0-3.8-2.7-7.1-6.4-7.8c-12.5-2.6-22.4-12.4-25-25c-0.8-3.7-4-6.4-7.8-6.4h0
	c-5,0-8.9,4.6-7.9,9.5c3.8,18.9,18.7,33.8,37.6,37.6C235.4,368,240,364.2,240,359.2z"/>
<linearGradient id="SVGID_5_" gradientUnits="userSpaceOnUse" x1="257.9371" y1="302.0629" x2="273.9258" y2="286.0742">
	<stop  offset="0" style="stop-color:#F43F2A"/>
	<stop  offset="1" style="stop-color:#E8744F"/>
</linearGradient>
<path class="st4" d="M279.2,320L279.2,320c5,0,8.9-4.6,7.9-9.5c-3.8-18.9-18.7-33.8-37.6-37.6c-4.9-1-9.5,2.9-9.5,7.9v0
	c0,3.8,2.7,7.1,6.4,7.8c12.5,2.6,22.4,12.4,25,25C272.1,317.3,275.4,320,279.2,320z"/>
<linearGradient id="SVGID_6_" gradientUnits="userSpaceOnUse" x1="230.3431" y1="329.6569" x2="249.6569" y2="310.3431">
	<stop  offset="0" style="stop-color:#F43F2A"/>
	<stop  offset="1" style="stop-color:#E8744F"/>
</linearGradient>
<path class="st5" d="M240,304L240,304c4.4,0,8,3.6,8,8v16c0,4.4-3.6,8-8,8h0c-4.4,0-8-3.6-8-8v-16C232,307.6,235.6,304,240,304z"/>
<linearGradient id="SVGID_7_" gradientUnits="userSpaceOnUse" x1="216.3431" y1="467.6569" x2="279.6569" y2="404.3431">
	<stop  offset="0" style="stop-color:#F43F2A"/>
	<stop  offset="1" style="stop-color:#E8744F"/>
</linearGradient>
<path class="st6" d="M288,416L288,416c-4.4,0-8,3.6-8,8v0c0,4.4-3.6,8-8,8h-72c-4.4,0-8,3.6-8,8v0c0,4.4,3.6,8,8,8h88
	c4.4,0,8-3.6,8-8v-16C296,419.6,292.4,416,288,416z"/>
</svg>
