<?xml version="1.0" encoding="utf-8"?>
<!-- Generator: Adobe Illustrator 19.2.0, SVG Export Plug-In . SVG Version: 6.00 Build 0)  -->
<svg version="1.1" id="Слой_1" xmlns="http://www.w3.org/2000/svg" xmlns:xlink="http://www.w3.org/1999/xlink" x="0px" y="0px"
	 viewBox="0 0 14858.7 250.4" style="enable-background:new 0 0 14858.7 250.4;" xml:space="preserve">
<style type="text/css">
	.st0{fill:#F43F2A;}
</style>
<path class="st0" d="M14858.4,117.2l-0.1-1.9h-10l0.2,2.1c0.2,2.7,0.3,5.3,0.3,7.9c0,61.3-49.8,111.1-111.1,111.1
	s-111.1-49.8-111.1-111.1c0-2.6,0.1-5.2,0.3-7.9l0.2-2.1h-0.3c-0.1-7-0.8-14-2.2-20.9c-10.9-56.9-60.9-98.2-118.9-98.2
	c-66.8,0-121.1,54.3-121.1,121.1l0,0.1c0.2,2.7,0.3,5.3,0.3,7.9c0,61.3-49.8,111.1-111.1,111.1s-111.1-49.8-111.1-111.1
	c0-2.5,0.1-5.2,0.3-7.9l0.2-2.1h-0.3c-0.1-7-0.8-14-2.2-20.9c-10.9-56.9-60.9-98.2-118.9-98.2c-32.3,0-62.7,12.6-85.6,35.5
	c-22.9,22.9-35.5,53.3-35.5,85.6l0,0.1c0.2,2.7,0.3,5.3,0.3,7.9c0,61.3-49.8,111.1-111.1,111.1s-111.1-49.8-111.1-111.1
	c0-2.6,0.1-5.2,0.3-7.9l0.2-2.1h-0.3c-0.1-7-0.8-14-2.2-20.9c-10.9-56.9-60.9-98.2-118.9-98.2c-66.8,0-121.1,54.3-121.1,121.1l0,0.1
	c0.2,2.7,0.3,5.3,0.3,7.9c0,61.3-49.8,111.1-111.1,111.1s-111.1-49.8-111.1-111.1c0-2.5,0.1-5.2,0.3-7.9l0.2-2.1h-0.3
	c-0.1-7-0.8-14-2.2-20.9c-10.9-56.9-60.9-98.2-118.9-98.2c-66.8,0-121.1,54.3-121.1,121.1l0,0.1c0.2,2.7,0.3,5.3,0.3,7.9
	c0,61.3-49.8,111.1-111.1,111.1s-111.1-49.8-111.1-111.1c0-2.6,0.1-5.2,0.3-7.9l0.1-2.1h-0.3c-0.1-7-0.8-14-2.2-20.9
	c-10.9-56.9-60.9-98.2-118.9-98.2c-66.8,0-121.1,54.3-121.1,121.1l0,0.1c0.2,2.7,0.3,5.3,0.3,7.9c0,61.3-49.8,111.1-111.1,111.1
	s-111.1-49.8-111.1-111.1c0-2.6,0.1-5.2,0.3-7.9l0.2-2.1h-0.3c-0.1-7-0.8-14-2.2-20.9c-10.9-56.9-60.9-98.2-118.9-98.2
	c-32.3,0-62.7,12.6-85.6,35.5c-22.9,22.9-35.5,53.3-35.5,85.6l0,0.1c0.2,2.7,0.3,5.3,0.3,7.9c0,61.3-49.8,111.1-111.1,111.1
	s-111.1-49.8-111.1-111.1c0-2.6,0.1-5.2,0.3-7.9l0.2-2.1h-0.3c-0.1-7-0.8-14-2.2-20.9c-10.9-56.9-60.9-98.2-118.9-98.2
	c-66.8,0-121.1,54.3-121.1,121.1l0,0.1c0.2,2.7,0.3,5.3,0.3,7.9c0,61.3-49.8,111.1-111.1,111.1s-111.1-49.8-111.1-111.1
	c0-2.5,0.1-5.2,0.3-7.9l0.1-2.1h-0.3c-0.1-7-0.8-14-2.2-20.9c-10.9-56.9-60.9-98.2-118.9-98.2c-66.8,0-121.1,54.3-121.1,121.1l0,0.1
	c0.2,2.7,0.3,5.3,0.3,7.9c0,61.3-49.8,111.1-111.1,111.1c-61.3,0-111.1-49.8-111.1-111.1c0-2.6,0.1-5.2,0.3-7.9l0.1-2.1h-0.3
	c-0.1-7-0.8-14-2.2-20.9c-10.9-56.9-60.9-98.2-118.9-98.2c-66.8,0-121.1,54.3-121.1,121.1l0,0.1c0.2,2.7,0.3,5.3,0.3,7.9
	c0,61.3-49.8,111.1-111.1,111.1s-111.1-49.8-111.1-111.1c0-2.6,0.1-5.2,0.3-7.9l0.2-2.1h-0.3c-0.1-7-0.8-14-2.2-20.9
	c-10.9-56.9-60.9-98.2-118.9-98.2c-32.3,0-62.7,12.6-85.6,35.5c-22.9,22.9-35.5,53.3-35.5,85.6l0,0.1c0.2,2.7,0.3,5.3,0.3,7.9
	c0,61.3-49.8,111.1-111.1,111.1c-61.3,0-111.1-49.8-111.1-111.1c0-2.6,0.1-5.2,0.3-7.9l0.1-2.1h-0.3c-0.1-7-0.8-14-2.2-20.9
	c-10.9-56.9-60.9-98.2-118.9-98.2c-66.8,0-121.1,54.3-121.1,121.1l0,0.1c0.2,2.7,0.3,5.3,0.3,7.9c0,61.3-49.8,111.1-111.1,111.1
	s-111.1-49.8-111.1-111.1c0-2.6,0.1-5.2,0.3-7.9l0.2-2.1h-0.3c-0.1-7-0.8-14-2.2-20.9c-10.9-56.9-60.9-98.2-118.9-98.2
	c-66.8,0-121.1,54.3-121.1,121.1l0,0.1c0.2,2.7,0.3,5.3,0.3,7.9c0,61.3-49.8,111.1-111.1,111.1s-111.1-49.8-111.1-111.1
	c0-2.6,0.1-5.2,0.3-7.9l0.2-2.1h-0.3c-0.1-7-0.8-14-2.2-20.9c-10.9-56.9-60.9-98.2-118.9-98.2c-66.8,0-121.1,54.3-121.1,121.1l0,0.1
	c0.2,2.7,0.3,5.3,0.3,7.9c0,61.3-49.8,111.1-111.1,111.1c-61.3,0-111.1-49.8-111.1-111.1c0-2.6,0.1-5.2,0.3-7.9l0.2-2.1h-0.3
	c-0.1-7-0.8-14-2.2-20.9c-10.9-56.9-60.9-98.2-118.9-98.2c-32.3,0-62.7,12.6-85.6,35.5c-22.9,22.9-35.5,53.3-35.5,85.6l0,0.1
	c0.2,2.7,0.3,5.3,0.3,7.9c0,61.3-49.8,111.1-111.1,111.1s-111.1-49.8-111.1-111.1c0-2.6,0.1-5.2,0.3-7.9l0.1-2.1h-0.3
	c-0.1-7-0.8-14-2.2-20.9c-10.9-56.9-60.9-98.2-118.9-98.2c-66.8,0-121.1,54.3-121.1,121.1l0,0.1c0.2,2.7,0.3,5.3,0.3,7.9
	c0,61.3-49.8,111.1-111.1,111.1c-61.3,0-111.1-49.8-111.1-111.1c0-2.6,0.1-5.2,0.3-7.9l0.2-2.1h-0.3c-0.1-7-0.8-14-2.2-20.9
	c-10.9-56.9-60.9-98.2-118.9-98.2c-66.8,0-121.1,54.3-121.1,121.1v2h0l0.2,2.1c0.2,2.7,0.3,5.3,0.3,7.9
	c0,61.3-49.8,111.1-111.1,111.1s-111.1-49.8-111.1-111.1c0-2.6,0.1-5.2,0.3-7.9l0.2-2.1h-0.3c-0.1-7-0.8-14-2.2-20.9
	c-10.9-56.9-60.9-98.2-118.9-98.2c-66.8,0-121.1,54.3-121.1,121.1l0,0.1c0.2,2.7,0.3,5.3,0.3,7.9c0,61.3-49.8,111.1-111.1,111.1
	s-111.1-49.8-111.1-111.1c0-2.5,0.1-5.2,0.3-7.9l0.2-2.1h-0.3c-0.1-7-0.8-14-2.2-20.9c-10.9-56.9-60.9-98.2-118.9-98.2
	c-32.3,0-62.7,12.6-85.6,35.5c-22.9,22.9-35.5,53.3-35.5,85.6l0,0.1c0.2,2.7,0.3,5.3,0.3,7.9c0,61.3-49.8,111.1-111.1,111.1
	s-111.1-49.8-111.1-111.1c0-2.6,0.1-5.2,0.3-7.9l0.2-2.1h-0.3c-0.1-7-0.8-14-2.2-20.9c-10.9-56.9-60.9-98.2-118.9-98.2
	c-66.8,0-121.1,54.3-121.1,121.1l0,0.1c0.2,2.7,0.3,5.3,0.3,7.9c0,61.3-49.8,111.1-111.1,111.1s-111.1-49.8-111.1-111.1
	c0-2.5,0.1-5.2,0.3-7.9l0.2-2.1h-0.3c-0.1-7-0.8-14-2.2-20.9c-10.9-56.9-60.9-98.2-118.9-98.2c-66.8,0-121.1,54.3-121.1,121.1l0,0.1
	c0.2,2.7,0.3,5.3,0.3,7.9c0,61.3-49.8,111.1-111.1,111.1s-111.1-49.8-111.1-111.1c0-2.6,0.1-5.2,0.3-7.9l0.1-2.1h-0.3
	c-0.1-7-0.8-14-2.2-20.9c-10.9-56.9-60.9-98.2-118.9-98.2c-66.8,0-121.1,54.3-121.1,121.1l0,0.1c0.2,2.7,0.3,5.3,0.3,7.9
	c0,61.3-49.8,111.1-111.1,111.1s-111.1-49.8-111.1-111.1c0-2.6,0.1-5.2,0.3-7.9l0.2-2.1h-0.3c-0.1-7-0.8-14-2.2-20.9
	c-10.9-56.9-60.9-98.2-118.9-98.2c-32.3,0-62.7,12.6-85.6,35.5c-22.9,22.9-35.5,53.3-35.5,85.6l0,0.1c0.2,2.7,0.3,5.3,0.3,7.9
	c0,61.3-49.8,111.1-111.1,111.1s-111.1-49.8-111.1-111.1c0-2.6,0.1-5.2,0.3-7.9l0.2-2.1h-0.3c-0.1-7-0.8-14-2.2-20.9
	c-10.9-56.9-60.9-98.2-118.9-98.2c-66.8,0-121.1,54.3-121.1,121.1l0,0.1c0.2,2.7,0.3,5.3,0.3,7.9c0,61.3-49.8,111.1-111.1,111.1
	s-111.1-49.8-111.1-111.1c0-2.5,0.1-5.2,0.3-7.9l0.1-2.1h-0.3c-0.1-7-0.8-14-2.2-20.9c-10.9-56.9-60.9-98.2-118.9-98.2
	c-66.8,0-121.1,54.3-121.1,121.1l0,0.1c0.2,2.7,0.3,5.3,0.3,7.9c0,61.3-49.8,111.1-111.1,111.1c-61.3,0-111.1-49.8-111.1-111.1
	c0-2.6,0.1-5.2,0.3-7.9l0.1-2.1h-0.3c-0.1-7-0.8-14-2.2-20.9c-10.9-56.9-60.9-98.2-118.9-98.2c-66.8,0-121.1,54.3-121.1,121.1l0,0.1
	c0.2,2.7,0.3,5.3,0.3,7.9c0,61.3-49.8,111.1-111.1,111.1c-61.3,0-111.1-49.8-111.1-111.1c0-2.6,0.1-5.2,0.3-7.9l0.1-2.1h-0.3
	c-0.1-7-0.8-14-2.2-20.9c-10.9-56.9-60.9-98.2-118.9-98.2c-32.3,0-62.7,12.6-85.6,35.5c-22.9,22.9-35.5,53.3-35.5,85.6l0,0.1
	c0.2,2.7,0.3,5.3,0.3,7.9c0,61.3-49.8,111.1-111.1,111.1c-61.3,0-111.1-49.8-111.1-111.1c0-2.6,0.1-5.2,0.3-7.9l0.1-2.1h-0.3
	c-0.1-7-0.8-14-2.2-20.9c-10.9-56.9-60.9-98.2-118.9-98.2c-66.8,0-121.1,54.3-121.1,121.1l0,0.1c0.2,2.7,0.3,5.3,0.3,7.9
	c0,61.3-49.8,111.1-111.1,111.1s-111.1-49.8-111.1-111.1c0-2.6,0.1-5.2,0.3-7.9l0.2-2.1h-0.3c-0.1-7-0.8-14-2.2-20.9
	c-10.9-56.9-60.9-98.2-118.9-98.2c-66.8,0-121.1,54.3-121.1,121.1l0,0.1c0.2,2.7,0.3,5.3,0.3,7.9c0,61.3-49.8,111.1-111.1,111.1
	c-61.3,0-111.1-49.8-111.1-111.1c0-2.6,0.1-5.2,0.3-7.9l0.2-2.1h-0.3c-0.1-7-0.8-14-2.2-20.9c-10.9-56.9-60.9-98.2-118.9-98.2
	c-66.8,0-121.1,54.3-121.1,121.1l0,0.1c0.2,2.7,0.3,5.3,0.3,7.9c0,61.3-49.8,111.1-111.1,111.1c-61.3,0-111.1-49.8-111.1-111.1
	c0-2.6,0.1-5.2,0.3-7.9l0.2-2.1h-0.3c-0.1-7-0.8-14-2.2-20.9c-10.9-56.9-60.9-98.2-118.9-98.2c-32.3,0-62.7,12.6-85.6,35.5
	C940.6,58.6,928,89,928,121.3l0,0.1c0.2,2.7,0.3,5.3,0.3,7.9c0,61.3-49.8,111.1-111.1,111.1s-111.1-49.8-111.1-111.1
	c0-2.6,0.1-5.2,0.3-7.9l0.1-2.1h-0.3c-0.1-7-0.8-14-2.2-20.9C693.1,41.5,643.1,0.2,585.1,0.2C518.3,0.2,464,54.5,464,121.3l0,0.1
	c0.2,2.7,0.3,5.3,0.3,7.9c0,61.3-49.8,111.1-111.1,111.1c-61.3,0-111.1-49.8-111.1-111.1c0-2.6,0.1-5.2,0.3-7.9l0.2-2.1h-0.3
	c-0.1-7-0.8-14-2.2-20.9C229.1,41.5,179.1,0.2,121.1,0.2C54.3,0.2,0,54.5,0,121.3v2h10v-2C10,60,59.8,10.2,121.1,10.2
	S232.2,60,232.2,121.3v2h0c-0.1,2-0.1,4-0.1,6c0,7.7,0.7,15.3,2.2,22.9c10.9,56.9,60.9,98.2,118.9,98.2
	c66.8,0,121.1-54.3,121.1-121.1c0-2.6-0.1-5.4-0.3-8.1l0-0.1c0.1-61.2,49.9-110.9,111.1-110.9c61.3,0,111.1,49.8,111.1,111.1v2h0
	c-0.1,2-0.2,4-0.2,6c0,7.7,0.7,15.3,2.2,22.9c10.9,56.9,60.9,98.2,118.9,98.2c66.8,0,121.1-54.3,121.1-121.1c0-2.6-0.1-5.4-0.3-8.1
	l0-0.1c0.1-61.2,49.9-110.9,111.1-110.9c61.3,0,111.1,49.8,111.1,111.1v2h0c-0.1,2-0.1,4-0.1,6c0,7.7,0.7,15.3,2.2,22.9
	c10.9,56.9,60.9,98.2,118.9,98.2c66.8,0,121.1-54.3,121.1-121.1c0-2.6-0.1-5.4-0.3-8.1l0-0.1c0.1-61.2,49.9-110.9,111.1-110.9
	c61.3,0,111.1,49.8,111.1,111.1v2h0c-0.1,2-0.1,4-0.1,6c0,7.7,0.7,15.3,2.2,22.9c10.9,56.9,60.9,98.2,118.9,98.2
	c66.8,0,121.1-54.3,121.1-121.1c0-2.6-0.1-5.4-0.3-8.1l0-0.1c0.1-61.2,49.9-110.9,111.1-110.9c61.3,0,111.1,49.8,111.1,111.1v2h0
	c-0.1,2-0.1,4-0.1,6c0,7.7,0.7,15.3,2.2,22.9c10.9,56.9,60.9,98.2,118.9,98.2c66.8,0,121.1-54.3,121.1-121.1c0-2.6-0.1-5.4-0.3-8.1
	l0-0.1c0.1-61.2,49.9-110.9,111.1-110.9c61.3,0,111.1,49.8,111.1,111.1v2h0c-0.1,2-0.1,4-0.1,6c0,7.7,0.7,15.3,2.2,22.9
	c10.9,56.9,60.9,98.2,118.9,98.2c66.8,0,121.1-54.3,121.1-121.1c0-2.6-0.1-5.4-0.3-8.1l0-0.1c0.1-61.2,49.9-110.9,111.1-110.9
	c61.3,0,111.1,49.8,111.1,111.1v2h0c-0.1,2-0.1,4-0.1,6c0,7.7,0.7,15.3,2.2,22.9c10.9,56.9,60.9,98.2,118.9,98.2
	c66.8,0,121.1-54.3,121.1-121.1c0-2.6-0.1-5.4-0.3-8.1l0-0.1c0.1-61.2,49.9-110.9,111.1-110.9c61.3,0,111.1,49.8,111.1,111.1v2h0
	c-0.1,2-0.1,4-0.1,6c0,7.7,0.7,15.3,2.2,22.9c10.9,56.9,60.9,98.2,118.9,98.2c66.8,0,121.1-54.3,121.1-121.1c0-2.6-0.1-5.3-0.3-8.1
	l0-0.1c0.1-61.2,49.9-110.9,111.1-110.9c61.3,0,111.1,49.8,111.1,111.1v2h0c-0.1,2-0.2,4-0.2,6c0,7.7,0.7,15.3,2.2,22.9
	c10.9,56.9,60.9,98.2,118.9,98.2c66.8,0,121.1-54.3,121.1-121.1c0-2.6-0.1-5.4-0.3-8.1l0-0.1c0.1-61.2,49.9-110.9,111.1-110.9
	c61.3,0,111.1,49.8,111.1,111.1v2h0c-0.1,2-0.2,4-0.2,6c0,7.7,0.7,15.3,2.2,22.9c10.9,56.9,60.9,98.2,118.9,98.2
	c66.8,0,121.1-54.3,121.1-121.1c0-2.6-0.1-5.3-0.3-8.1l0-0.1c0.1-61.2,49.9-110.9,111.1-110.9c61.3,0,111.1,49.8,111.1,111.1v2h0
	c-0.1,2-0.1,4-0.1,6c0,7.7,0.7,15.3,2.2,22.9c10.9,56.9,60.9,98.2,118.9,98.2c66.8,0,121.1-54.3,121.1-121.1c0-2.6-0.1-5.4-0.3-8.1
	l0-0.1c0.1-61.2,49.9-110.9,111.1-110.9c61.3,0,111.1,49.8,111.1,111.1v2h0c-0.1,2-0.1,4-0.1,6c0,7.7,0.7,15.3,2.2,22.9
	c10.9,56.9,60.9,98.2,118.9,98.2c66.8,0,121.1-54.3,121.1-121.1c0-2.6-0.1-5.3-0.3-8.1l0-0.1c0.1-61.2,49.9-110.9,111.1-110.9
	c61.3,0,111.1,49.8,111.1,111.1v2h0c-0.1,2-0.2,4-0.2,6c0,7.7,0.7,15.3,2.2,22.9c10.9,56.9,60.9,98.2,118.9,98.2
	c66.8,0,121.1-54.3,121.1-121.1c0-2.6-0.1-5.4-0.3-8.1l0-0.1c0.1-61.2,49.9-110.9,111.1-110.9c61.3,0,111.1,49.8,111.1,111.1v2h0
	c-0.1,2-0.1,4-0.1,6c0,7.7,0.7,15.3,2.2,22.9c10.9,56.9,60.9,98.2,118.9,98.2c66.8,0,121.1-54.3,121.1-121.1c0-2.6-0.1-5.3-0.3-8.1
	l0-0.1c0.1-61.1,49.9-110.8,111.1-110.8c61.3,0,111.1,49.8,111.1,111.1v2h0c-0.1,2-0.1,4-0.1,6c0,7.6,0.7,15.3,2.2,22.9
	c10.9,56.9,60.9,98.2,118.9,98.2c66.8,0,121.1-54.3,121.1-121.1c0-2.6-0.1-5.4-0.3-8.1l0-0.1c0.1-61.2,49.9-110.9,111.1-110.9
	c61.3,0,111.1,49.8,111.1,111.1v2h0c-0.1,2-0.2,4-0.2,6c0,7.7,0.7,15.3,2.2,22.9c10.9,56.9,60.9,98.2,118.9,98.2
	c66.8,0,121.1-54.3,121.1-121.1c0-2.6-0.1-5.3-0.3-8.1l-0.1-1.9h0v-2c0-61.3,49.8-111.1,111.1-111.1s111.1,49.8,111.1,111.1v2h0
	c-0.1,2-0.1,4-0.1,6c0,7.7,0.7,15.3,2.2,22.9c10.9,56.9,60.9,98.2,118.9,98.2c66.8,0,121.1-54.3,121.1-121.1c0-2.6-0.1-5.4-0.3-8.1
	l0-0.1c0.1-61.2,49.9-110.9,111.1-110.9c61.3,0,111.1,49.8,111.1,111.1v2h0c-0.1,2-0.2,4-0.2,6c0,7.7,0.7,15.3,2.2,22.9
	c10.9,56.9,60.9,98.2,118.9,98.2c66.8,0,121.1-54.3,121.1-121.1c0-2.6-0.1-5.4-0.3-8.1l0-0.1c0.1-61.2,49.9-110.9,111.1-110.9
	c61.3,0,111.1,49.8,111.1,111.1v2h0c-0.1,2-0.1,4-0.1,6c0,7.7,0.7,15.3,2.2,22.9c10.9,56.9,60.9,98.2,118.9,98.2
	c66.8,0,121.1-54.3,121.1-121.1c0-2.6-0.1-5.4-0.3-8.1l0-0.1c0.1-61.2,49.9-110.9,111.1-110.9c61.3,0,111.1,49.8,111.1,111.1v2h0
	c-0.1,2-0.1,4-0.1,6c0,7.7,0.7,15.3,2.2,22.9c10.9,56.9,60.9,98.2,118.9,98.2c66.8,0,121.1-54.3,121.1-121.1c0-2.6-0.1-5.4-0.3-8.1
	l0-0.1c0.1-61.2,49.9-110.9,111.1-110.9c61.3,0,111.1,49.8,111.1,111.1v2h0c-0.1,2-0.2,4-0.2,6c0,7.7,0.7,15.3,2.2,22.9
	c10.9,56.9,60.9,98.2,118.9,98.2c66.8,0,121.1-54.3,121.1-121.1c0-2.6-0.1-5.4-0.3-8.1l0-0.1c0.1-61.2,49.9-110.9,111.1-110.9
	c61.3,0,111.1,49.8,111.1,111.1v2h0c-0.1,2-0.1,4-0.1,6c0,7.7,0.7,15.3,2.2,22.9c10.9,56.9,60.9,98.2,118.9,98.2
	c66.8,0,121.1-54.3,121.1-121.1c0-2.6-0.1-5.4-0.3-8.1l0-0.1c0.1-61.2,49.9-110.9,111.1-110.9c61.3,0,111.1,49.8,111.1,111.1v2h0
	c-0.1,2-0.1,4-0.1,6c0,7.7,0.7,15.3,2.2,22.9c10.9,56.9,60.9,98.2,118.9,98.2c66.8,0,121.1-54.3,121.1-121.1c0-2.6-0.1-5.4-0.3-8.1
	l0-0.1c0.1-61.2,49.9-110.9,111.1-110.9c61.3,0,111.1,49.8,111.1,111.1v2h0c-0.1,2-0.1,4-0.1,6c0,7.7,0.7,15.3,2.2,22.9
	c10.9,56.9,60.9,98.2,118.9,98.2c66.8,0,121.1-54.3,121.1-121.1c0-2.6-0.1-5.3-0.3-8.1l0-0.1c0.1-61.2,49.9-110.9,111.1-110.9
	c61.3,0,111.1,49.8,111.1,111.1v2h0c-0.1,2-0.2,4-0.2,6c0,7.7,0.7,15.3,2.2,22.9c10.9,56.9,60.9,98.2,118.9,98.2
	c66.8,0,121.1-54.3,121.1-121.1c0-2.6-0.1-5.4-0.3-8.1l0-0.1c0.1-61.2,49.9-110.9,111.1-110.9c61.3,0,111.1,49.8,111.1,111.1v2h0
	c-0.1,2-0.2,4-0.2,6c0,7.7,0.7,15.3,2.2,22.9c10.9,56.9,60.9,98.2,118.9,98.2c66.8,0,121.1-54.3,121.1-121.1c0-2.6-0.1-5.3-0.3-8.1
	l0-0.1c0.1-61.2,49.9-110.9,111.1-110.9c61.3,0,111.1,49.8,111.1,111.1v2h0c-0.1,2-0.1,4-0.1,6c0,7.7,0.7,15.3,2.2,22.9
	c10.9,56.9,60.9,98.2,118.9,98.2c66.8,0,121.1-54.3,121.1-121.1c0-2.6-0.1-5.4-0.3-8.1l0-0.1c0.1-61.2,49.9-110.9,111.1-110.9
	c61.3,0,111.1,49.8,111.1,111.1v2h0c-0.1,2-0.1,4-0.1,6c0,7.7,0.7,15.3,2.2,22.9c10.9,56.9,60.9,98.2,118.9,98.2
	c66.8,0,121.1-54.3,121.1-121.1c0-2.6-0.1-5.3-0.3-8.1l0-0.1c0.1-61.2,49.9-110.9,111.1-110.9c61.3,0,111.1,49.8,111.1,111.1v2h0
	c-0.1,2-0.2,4-0.2,6c0,7.7,0.7,15.3,2.2,22.9c10.9,56.9,60.9,98.2,118.9,98.2c66.8,0,121.1-54.3,121.1-121.1c0-2.6-0.1-5.4-0.3-8.1
	l0-0.1c0.1-61.2,49.9-110.9,111.1-110.9c61.3,0,111.1,49.8,111.1,111.1v2h0c-0.1,2-0.1,4-0.1,6c0,7.7,0.7,15.3,2.2,22.9
	c10.9,56.9,60.9,98.2,118.9,98.2c66.8,0,121.1-54.3,121.1-121.1c0-2.6-0.1-5.3-0.3-8.1l0-0.1c0.1-61.1,49.9-110.8,111.1-110.8
	c61.3,0,111.1,49.8,111.1,111.1v2h0c-0.1,2-0.1,4-0.1,6c0,7.6,0.7,15.3,2.2,22.9c10.9,56.9,60.9,98.2,118.9,98.2
	c66.8,0,121.1-54.3,121.1-121.1c0-2.6-0.1-5.4-0.3-8.1l0-0.1c0.1-61.2,49.9-110.9,111.1-110.9c61.3,0,111.1,49.8,111.1,111.1v2h0
	c-0.1,2-0.2,4-0.2,6c0,7.7,0.7,15.3,2.2,22.9c10.9,56.9,60.9,98.2,118.9,98.2c66.8,0,121.1-54.3,121.1-121.1
	C14858.7,122.7,14858.6,119.9,14858.4,117.2z"/>
</svg>
