<?xml version="1.0" encoding="utf-8"?>
<!-- Generator: Adobe Illustrator 19.2.0, SVG Export Plug-In . SVG Version: 6.00 Build 0)  -->
<svg version="1.1" id="Слой_1" xmlns="http://www.w3.org/2000/svg" xmlns:xlink="http://www.w3.org/1999/xlink" x="0px" y="0px"
	 viewBox="0 0 512 512" style="enable-background:new 0 0 512 512;" xml:space="preserve">
<style type="text/css">
	.st0{fill:url(#SVGID_1_);}
	.st1{fill:url(#SVGID_2_);}
	.st2{fill:url(#SVGID_3_);}
	.st3{fill:url(#SVGID_4_);}
	.st4{fill:url(#SVGID_5_);}
	.st5{fill:url(#SVGID_6_);}
	.st6{fill:url(#SVGID_7_);}
	.st7{fill:url(#SVGID_8_);}
	.st8{fill:url(#SVGID_9_);}
	.st9{fill:url(#SVGID_10_);}
	.st10{fill:url(#SVGID_11_);}
	.st11{fill:url(#SVGID_12_);}
	.st12{fill:url(#SVGID_13_);}
	.st13{fill:url(#SVGID_14_);}
	.st14{fill:url(#SVGID_15_);}
	.st15{fill:url(#SVGID_16_);}
</style>
<linearGradient id="SVGID_1_" gradientUnits="userSpaceOnUse" x1="206.9059" y1="426.4401" x2="259.5309" y2="373.8151">
	<stop  offset="0" style="stop-color:#F43F2A"/>
	<stop  offset="1" style="stop-color:#E8744F"/>
</linearGradient>
<path class="st0" d="M270.4,400.1c0-20.5-16.7-37.2-37.2-37.2c-20.5,0-37.2,16.7-37.2,37.2s16.7,37.2,37.2,37.2
	S270.4,420.7,270.4,400.1z M211,400.1c0-12.3,10-22.2,22.2-22.2s22.2,10,22.2,22.2s-10,22.2-22.2,22.2S211,412.4,211,400.1z"/>
<linearGradient id="SVGID_2_" gradientUnits="userSpaceOnUse" x1="114.2167" y1="379.2977" x2="166.8414" y2="326.673">
	<stop  offset="0" style="stop-color:#F43F2A"/>
	<stop  offset="1" style="stop-color:#E8744F"/>
</linearGradient>
<path class="st1" d="M140.5,315.8c-20.5,0-37.2,16.7-37.2,37.2s16.7,37.2,37.2,37.2c20.5,0,37.2-16.7,37.2-37.2
	S161.1,315.8,140.5,315.8z M140.5,375.2c-12.3,0-22.2-10-22.2-22.2s10-22.2,22.2-22.2c12.3,0,22.2,10,22.2,22.2
	S152.8,375.2,140.5,375.2z"/>
<linearGradient id="SVGID_3_" gradientUnits="userSpaceOnUse" x1="138.6776" y1="226.1683" x2="191.3033" y2="173.5426">
	<stop  offset="0" style="stop-color:#F43F2A"/>
	<stop  offset="1" style="stop-color:#E8744F"/>
</linearGradient>
<path class="st2" d="M165,162.6c-20.5,0-37.2,16.7-37.2,37.2s16.7,37.2,37.2,37.2c20.5,0,37.2-16.7,37.2-37.2S185.5,162.6,165,162.6
	z M165,222.1c-12.3,0-22.2-10-22.2-22.2s10-22.2,22.2-22.2c12.3,0,22.2,10,22.2,22.2S177.2,222.1,165,222.1z"/>
<linearGradient id="SVGID_4_" gradientUnits="userSpaceOnUse" x1="201.0986" y1="125.4297" x2="253.7236" y2="72.8047">
	<stop  offset="0" style="stop-color:#F43F2A"/>
	<stop  offset="1" style="stop-color:#E8744F"/>
</linearGradient>
<path class="st3" d="M264.6,99.1c0-20.5-16.7-37.2-37.2-37.2s-37.2,16.7-37.2,37.2s16.7,37.2,37.2,37.2S264.6,119.6,264.6,99.1z
	 M205.2,99.1c0-12.3,10-22.2,22.2-22.2s22.2,10,22.2,22.2s-10,22.2-22.2,22.2S205.2,111.4,205.2,99.1z"/>
<linearGradient id="SVGID_5_" gradientUnits="userSpaceOnUse" x1="357.0596" y1="151.7207" x2="388.6729" y2="120.1074">
	<stop  offset="0" style="stop-color:#F43F2A"/>
	<stop  offset="1" style="stop-color:#E8744F"/>
</linearGradient>
<path class="st4" d="M395.2,135.9c0-12.3-10-22.4-22.4-22.4s-22.4,10-22.4,22.4s10,22.4,22.4,22.4S395.2,148.2,395.2,135.9z
	 M365.5,135.9c0-4.1,3.3-7.4,7.4-7.4s7.4,3.3,7.4,7.4s-3.3,7.4-7.4,7.4S365.5,140,365.5,135.9z"/>
<linearGradient id="SVGID_6_" gradientUnits="userSpaceOnUse" x1="309.2212" y1="228.9214" x2="340.8354" y2="197.3071">
	<stop  offset="0" style="stop-color:#F43F2A"/>
	<stop  offset="1" style="stop-color:#E8744F"/>
</linearGradient>
<path class="st5" d="M325,190.8c-12.3,0-22.4,10-22.4,22.4s10,22.4,22.4,22.4s22.4-10,22.4-22.4S337.4,190.8,325,190.8z M325,220.5
	c-4.1,0-7.4-3.3-7.4-7.4c0-4.1,3.3-7.4,7.4-7.4c4.1,0,7.4,3.3,7.4,7.4C332.4,217.2,329.1,220.5,325,220.5z"/>
<linearGradient id="SVGID_7_" gradientUnits="userSpaceOnUse" x1="291.7832" y1="107.126" x2="323.3965" y2="75.5127">
	<stop  offset="0" style="stop-color:#F43F2A"/>
	<stop  offset="1" style="stop-color:#E8744F"/>
</linearGradient>
<path class="st6" d="M307.6,113.7c12.3,0,22.4-10,22.4-22.4S319.9,69,307.6,69s-22.4,10-22.4,22.4S295.3,113.7,307.6,113.7z
	 M307.6,84c4.1,0,7.4,3.3,7.4,7.4s-3.3,7.4-7.4,7.4c-4.1,0-7.4-3.3-7.4-7.4C300.2,87.3,303.5,84,307.6,84z"/>
<linearGradient id="SVGID_8_" gradientUnits="userSpaceOnUse" x1="239.7228" y1="189.3702" x2="271.337" y2="157.756">
	<stop  offset="0" style="stop-color:#F43F2A"/>
	<stop  offset="1" style="stop-color:#E8744F"/>
</linearGradient>
<path class="st7" d="M233.2,173.6c0,12.3,10,22.4,22.4,22.4s22.4-10,22.4-22.4s-10-22.4-22.4-22.4
	C243.2,151.2,233.2,161.2,233.2,173.6z M262.9,173.6c0,4.1-3.3,7.4-7.4,7.4c-4.1,0-7.4-3.3-7.4-7.4c0-4.1,3.3-7.4,7.4-7.4
	C259.6,166.2,262.9,169.5,262.9,173.6z"/>
<linearGradient id="SVGID_9_" gradientUnits="userSpaceOnUse" x1="73.1543" y1="234.9209" x2="104.7676" y2="203.3076">
	<stop  offset="0" style="stop-color:#F43F2A"/>
	<stop  offset="1" style="stop-color:#E8744F"/>
</linearGradient>
<path class="st8" d="M89,196.8c-12.3,0-22.4,10-22.4,22.4s10,22.4,22.4,22.4s22.4-10,22.4-22.4S101.3,196.8,89,196.8z M89,226.5
	c-4.1,0-7.4-3.3-7.4-7.4c0-4.1,3.3-7.4,7.4-7.4c4.1,0,7.4,3.3,7.4,7.4C96.3,223.2,93,226.5,89,226.5z"/>
<linearGradient id="SVGID_10_" gradientUnits="userSpaceOnUse" x1="158.5239" y1="305.4351" x2="190.1375" y2="273.8215">
	<stop  offset="0" style="stop-color:#F43F2A"/>
	<stop  offset="1" style="stop-color:#E8744F"/>
</linearGradient>
<path class="st9" d="M174.3,312c12.3,0,22.4-10,22.4-22.4s-10-22.4-22.4-22.4c-12.3,0-22.4,10-22.4,22.4S162,312,174.3,312z
	 M174.3,282.3c4.1,0,7.4,3.3,7.4,7.4c0,4.1-3.3,7.4-7.4,7.4c-4.1,0-7.4-3.3-7.4-7.4C167,285.6,170.3,282.3,174.3,282.3z"/>
<linearGradient id="SVGID_11_" gradientUnits="userSpaceOnUse" x1="124.7074" y1="144.6675" x2="156.3512" y2="113.0237">
	<stop  offset="0" style="stop-color:#F43F2A"/>
	<stop  offset="1" style="stop-color:#E8744F"/>
</linearGradient>
<path class="st10" d="M140.5,151.2c2.1,0,4.2-0.3,6.3-0.9c11.8-3.5,18.7-15.9,15.2-27.7c-1.7-5.7-5.5-10.5-10.7-13.3
	c-5.2-2.9-11.3-3.5-17-1.9c-11.8,3.5-18.7,15.9-15.2,27.7c1.7,5.7,5.5,10.5,10.7,13.3C133.1,150.3,136.8,151.2,140.5,151.2z
	 M138.5,121.8c0.7-0.2,1.4-0.3,2.1-0.3c1.2,0,2.4,0.3,3.5,0.9c1.7,0.9,3,2.5,3.5,4.4c1.1,3.9-1.1,8-5,9.1c-1.9,0.6-3.9,0.3-5.6-0.6
	c-1.7-0.9-3-2.5-3.5-4.4C132.3,127,134.6,122.9,138.5,121.8z"/>
<linearGradient id="SVGID_12_" gradientUnits="userSpaceOnUse" x1="78.506" y1="316.4015" x2="110.1202" y2="284.7872">
	<stop  offset="0" style="stop-color:#F43F2A"/>
	<stop  offset="1" style="stop-color:#E8744F"/>
</linearGradient>
<path class="st11" d="M116.7,300.6c0-12.3-10-22.4-22.4-22.4s-22.4,10-22.4,22.4S82,323,94.3,323C106.6,323,116.7,312.9,116.7,300.6
	z M94.3,308c-4.1,0-7.4-3.3-7.4-7.4c0-4.1,3.3-7.4,7.4-7.4c4.1,0,7.4,3.3,7.4,7.4C101.7,304.7,98.4,308,94.3,308z"/>
<linearGradient id="SVGID_13_" gradientUnits="userSpaceOnUse" x1="287.8657" y1="430.7983" x2="319.478" y2="399.186">
	<stop  offset="0" style="stop-color:#F43F2A"/>
	<stop  offset="1" style="stop-color:#E8744F"/>
</linearGradient>
<path class="st12" d="M303.7,437.4c12.3,0,22.4-10,22.4-22.4s-10-22.4-22.4-22.4s-22.4,10-22.4,22.4S291.3,437.4,303.7,437.4z
	 M303.7,407.6c4.1,0,7.4,3.3,7.4,7.4c0,4.1-3.3,7.4-7.4,7.4c-4.1,0-7.4-3.3-7.4-7.4C296.3,410.9,299.6,407.6,303.7,407.6z"/>
<linearGradient id="SVGID_14_" gradientUnits="userSpaceOnUse" x1="239.7217" y1="346.1309" x2="271.335" y2="314.5176">
	<stop  offset="0" style="stop-color:#F43F2A"/>
	<stop  offset="1" style="stop-color:#E8744F"/>
</linearGradient>
<path class="st13" d="M255.5,352.7c12.3,0,22.4-10,22.4-22.4s-10-22.4-22.4-22.4s-22.4,10-22.4,22.4S243.2,352.7,255.5,352.7z
	 M255.5,323c4.1,0,7.4,3.3,7.4,7.4c0,4.1-3.3,7.4-7.4,7.4c-4.1,0-7.4-3.3-7.4-7.4C248.2,326.3,251.5,323,255.5,323z"/>
<linearGradient id="SVGID_15_" gradientUnits="userSpaceOnUse" x1="371.8174" y1="228.168" x2="424.4424" y2="175.543">
	<stop  offset="0" style="stop-color:#F43F2A"/>
	<stop  offset="1" style="stop-color:#E8744F"/>
</linearGradient>
<path class="st14" d="M398.1,164.6c-20.5,0-37.2,16.7-37.2,37.2s16.7,37.2,37.2,37.2s37.2-16.7,37.2-37.2S418.7,164.6,398.1,164.6z
	 M398.1,224.1c-12.3,0-22.2-10-22.2-22.2s10-22.2,22.2-22.2s22.2,10,22.2,22.2S410.4,224.1,398.1,224.1z"/>
<linearGradient id="SVGID_16_" gradientUnits="userSpaceOnUse" x1="70.1916" y1="432.6934" x2="432.2227" y2="70.6623">
	<stop  offset="0" style="stop-color:#F43F2A"/>
	<stop  offset="1" style="stop-color:#E8744F"/>
</linearGradient>
<path class="st15" d="M511,239.6c-5.1-80-47.4-152.6-113.6-196.7c-5-3.3-11.1-4.5-17-3.3c-1.9-5.7-5.9-10.4-11.3-13.1
	C333.7,8.9,295.4,0,255.5,0c-39.9,0-78.1,8.9-113.7,26.6c-5.3,2.7-9.4,7.4-11.3,13.1c-5.9-1.2-12-0.1-17,3.3
	C47.5,87,5.1,159.6,0,239.6c-0.4,6,1.7,11.9,5.7,16.4c-4,4.5-6.1,10.4-5.7,16.4c5.1,80,47.4,152.6,113.6,196.7
	c4.8,3.2,10.9,4.5,17,3.3c1.9,5.7,5.9,10.4,11.3,13.1c35.5,17.6,73.7,26.6,113.6,26.6c39.9,0,78.1-8.9,113.7-26.6
	c11.6-5.7,15.8-20.2,9.4-31.4l-110-190.6H349v42.6c0,13.8,10.9,26,26.5,26c14.7,0,26.7-11.9,26.7-26.6v-6.9c0-2.4,2-4.4,4.4-4.4
	s4.4,2,4.4,4.4v53.5c0,12.2,9.9,22.1,22.1,22.1c12.2,0,22.1-9.9,22.1-22.1v-88.6h33.4C501.5,263.5,511.8,252.5,511,239.6z
	 M124.5,412.1c-8.4-7-14-18.1-22.1-27.7c-8-9.6-18-17-23.5-26.5c-5.4-9.4-7-21.7-11.3-33.6c-4.2-11.7-11-22-12.9-32.9
	c-1.5-8.4,0-17.9,0.7-27.9h187.1l-93.6,162C140,421.1,131.2,417.7,124.5,412.1z M54.8,220.6c1.9-10.9,8.7-21.3,12.9-32.9
	c4.3-11.9,5.8-24.2,11.3-33.6c5.5-9.5,15.4-16.9,23.5-26.5c8.1-9.6,13.7-20.7,22.1-27.7c6.6-5.6,15.4-9,24.4-13.4l39.5,68.4
	c2.1,3.6,6.7,4.8,10.2,2.7s4.8-6.7,2.7-10.2L162,78.9c8.3-5.6,15.6-11.5,23.8-14.5c10.1-3.7,22.5-3.1,35-5.2c12.2-2.1,23.6-7,34.7-7
	c11.2,0,22.5,4.9,34.7,7c12.5,2.2,24.9,1.5,35,5.2c8.2,3,15.5,8.9,23.8,14.5L255.5,241l-36.6-63.4c-2.1-3.6-6.7-4.8-10.2-2.7
	c-3.6,2.1-4.8,6.7-2.7,10.2l36.6,63.4H55.5C54.8,238.4,53.3,229,54.8,220.6z M148.5,40c33.4-16.6,69.4-25,107-25
	c37.6,0,73.6,8.4,107,25c3.8,1.9,5.2,6.7,3.1,10.4l-9,15.5c-8.3-5.6-16.3-11.9-26.2-15.6c-12.5-4.5-25.8-3.8-37.5-5.9
	c-11.4-2-23.6-7.2-37.3-7.2c-13.7,0-25.9,5.2-37.3,7.2c-11.8,2.1-25.1,1.4-37.6,5.9c-10,3.6-18,9.9-26.2,15.6
	c-0.1-0.1-9-15.5-9-15.5c0,0,0,0,0,0C143.3,46.7,144.7,41.9,148.5,40z M15,240.6c4.7-74.4,44.7-143.7,106.9-185.2
	c3.5-2.4,8.4-1.2,10.6,2.6l9,15.5c-9,4.4-18.5,8.2-26.6,15C104.6,97,98.6,108.9,91,117.9c-7.6,9-18.2,17-25,28.6
	c-6.7,11.6-8.3,24.7-12.4,35.9c-4,11-11.3,22.1-13.6,35.5c-1.8,10.3-0.3,20.4,0.4,30.5H22.5C18.2,248.5,14.7,244.9,15,240.6z
	 M121.9,456.6C59.7,415.1,19.7,345.8,15,271.4c-0.3-4.3,3.2-7.9,7.5-7.9h17.9c-0.7,10.1-2.2,20.2-0.4,30.5
	c2.3,13.4,9.6,24.5,13.6,35.5c4.1,11.2,5.7,24.4,12.4,35.9c6.7,11.7,17.4,19.6,25,28.7c7.6,9,13.6,20.9,23.9,29.5
	c8.1,6.8,17.6,10.6,26.6,15l-9,15.5C130.4,457.8,125.5,459,121.9,456.6z M362.5,472c-33.4,16.6-69.4,25-107,25s-73.6-8.4-107-25
	c-3.8-1.9-5.2-6.7-3.1-10.4l9-15.5c8.3,5.6,16.3,11.9,26.2,15.6c3.9,1.4,8.2-0.6,9.6-4.5c1.4-3.9-0.6-8.2-4.5-9.6
	c-8.2-3-15.6-8.9-23.8-14.5L255.5,271l93.6,162.1c-8.3,5.6-15.6,11.5-23.8,14.5c-10.1,3.7-22.5,3-35,5.2c-12.2,2.1-23.6,7-34.7,7
	c-11.9,0-23.6-5.4-37.6-7.5c-4.1-0.6-7.9,2.3-8.5,6.4c-0.6,4.1,2.3,7.9,6.4,8.5c12.9,1.9,25.2,7.6,39.7,7.6
	c13.7,0,25.9-5.2,37.3-7.2c11.8-2.1,25.1-1.4,37.6-5.9c10-3.6,18-9.9,26.2-15.6l9,15.5C367.7,465.3,366.3,470.1,362.5,472z
	 M447.7,248.5c-4.1,0-7.5,3.4-7.5,7.5v96.1c0,3.9-3.2,7.1-7.1,7.1s-7.1-3.2-7.1-7.1v-53.5c0-10.7-8.7-19.4-19.4-19.4
	c-10.7,0-19.4,8.7-19.4,19.4v6.9c0,6-4.7,11.6-12.2,11.6c-6.1,0-11-4.9-11-11l0-42.6h56.7c4.1,0,7.5-3.4,7.5-7.5s-3.4-7.5-7.5-7.5
	H268.5l93.6-162c9,4.4,17.8,7.8,24.4,13.4c8.4,7,14,18.1,22.1,27.7c8,9.6,18,17,23.5,26.5c5.4,9.4,7,21.7,11.3,33.6
	c4.2,11.7,11,22,12.9,32.9c1.5,8.4,0,17.9-0.7,27.9H447.7z M488.5,248.5h-17.9c0.7-10.1,2.2-20.2,0.4-30.5
	c-2.3-13.4-9.6-24.5-13.6-35.5c-4.1-11.2-5.7-24.4-12.4-35.9c-6.7-11.7-17.4-19.6-25-28.7c-7.6-9-13.6-20.9-23.9-29.5
	c-8.1-6.8-17.5-10.6-26.6-15l9-15.5c2.2-3.8,7-4.9,10.6-2.6C451.4,96.9,491.3,166.2,496,240.6C496.3,244.9,492.9,248.5,488.5,248.5z
	"/>
</svg>
