<svg id="Слой_1" data-name="Слой 1" xmlns="http://www.w3.org/2000/svg" xmlns:xlink="http://www.w3.org/1999/xlink" viewBox="0 0 518.66 203.26"><defs><style>.cls-1{fill:url(#Безымянный_градиент_7);}.cls-2{fill:url(#Безымянный_градиент_7-2);}.cls-3{fill:url(#Безымянный_градиент_7-3);}.cls-4{fill:url(#Безымянный_градиент_7-4);}.cls-5{fill:url(#Безымянный_градиент_7-5);}</style><linearGradient id="Безымянный_градиент_7" x1="135.14" y1="147.59" x2="211.92" y2="70.81" gradientUnits="userSpaceOnUse"><stop offset="0" stop-color="#f43f2a"/><stop offset="1" stop-color="#e8744f"/></linearGradient><linearGradient id="Безымянный_градиент_7-2" x1="199.32" y1="132.6" x2="234.71" y2="97.21" xlink:href="#Безымянный_градиент_7"/><linearGradient id="Безымянный_градиент_7-3" x1="226.06" y1="142.25" x2="279.07" y2="89.24" xlink:href="#Безымянный_градиент_7"/><linearGradient id="Безымянный_градиент_7-4" x1="272.59" y1="131.89" x2="321.7" y2="82.78" xlink:href="#Безымянный_градиент_7"/><linearGradient id="Безымянный_градиент_7-5" x1="322.8" y1="117.27" x2="356.41" y2="83.67" xlink:href="#Безымянный_градиент_7"/></defs><title>Logotype Black</title><path d="M297.72,53.27a25.45,25.45,0,0,0-5.55-7q-8.46-7.48-23.15-7.48H256.56V17.6H292V2.08h-53.5V79h-7.47V2.08H168.7v40.2q0,15.8-3.33,24.26a24.22,24.22,0,0,1-6.1,9.08,12.92,12.92,0,0,1-5,2.94q9.35-12.38,9.37-30.17,0-21.21-13.28-34.79T116.09,0q-21,0-34.23,13.58a45,45,0,0,0-8.68,12.49v-24H0V94.53H18V17.6H55.16V94.53h18V70.65a44.65,44.65,0,0,0,8.68,12.45q13.28,13.51,34.23,13.51t34.24-13.51l0.35-.38v32.6h16.63V94.53h56.83v20.79h16.63V94.53h28.39q18.71,0,26.61-11.23a29.22,29.22,0,0,0,1.94-3.23V94.53H349V79H315.74V53.78h31.88V38.26H315.74V17.6H349V2.08H297.72V53.27Zm-160.27,18q-8.28,8.94-21.36,8.94T94.74,71.31q-8.28-8.94-8.28-22.94t8.34-23q8.34-9,21.29-9t21.29,9q8.34,9,8.34,23T137.45,71.31ZM213.05,79H175.77A30.59,30.59,0,0,0,183,68.05q3.19-8.45,3.19-25.78V17.6h26.89V79Zm52.1,0h-8.59V54.33h8.87q9.29,0,13.1,3.67a12,12,0,0,1,3.81,8.94Q282.34,79,265.15,79Z"/><path d="M412.17,16.19a27.12,27.12,0,0,0-5.74-7A26.18,26.18,0,0,0,396.1,3.53,56.2,56.2,0,0,0,382,2.08H355.14V94.53h18V60.29H384.8q15.25,0,23.42-8.18a24.32,24.32,0,0,0,3.94-5.23V94.53h51.28V79H430.19V53.78h31.88V38.26H430.19V17.6h33.27V2.08H412.17V16.19ZM392.29,41.86q-3.88,2.91-11.78,2.91h-7.35V17.6h6.24q8.59,0,12.75,2.91A12.29,12.29,0,0,1,397.28,31,12.92,12.92,0,0,1,392.29,41.86Z"/><polygon points="469.59 2.08 469.59 94.53 487.61 94.53 487.61 17.6 518.65 17.6 518.65 2.08 469.59 2.08"/><path class="cls-1" d="M152,163a0.13,0.13,0,0,1-.16-0.11c-0.75.42-1-.35-1.36-0.56s-0.51-.45-0.64-0.42c-0.48-.32-1-0.35-0.9-1.06l-0.19-.24a1.86,1.86,0,0,1-1.33-1.11,2,2,0,0,0-.82-0.66,0.44,0.44,0,0,1,0-.68,6.38,6.38,0,0,1-.52-0.45l-0.23-1.19-0.05-.27c-0.13-.66-0.48-1.14-0.61-1.8a1.91,1.91,0,0,1-.13-1.76c-0.56-.72-0.37-1.71-0.79-2.46-0.16-.11-0.36-0.34,0-0.42,0.13,0,.26-0.05.1-0.16a1.66,1.66,0,0,1,0-1.93l0.11-.16c-0.77-.4.21-1.14,0.37-1.72,0.06-1.11-1.54-1.9.86-3.47l-0.08-.4c-0.08-.4-0.95,1-0.55.89l0.27-.05a2.2,2.2,0,0,0-.3-0.81,0.89,0.89,0,0,1-.16-0.82,7.16,7.16,0,0,0,.09-1.68,3.06,3.06,0,0,1,.23-1.63,1.84,1.84,0,0,0-.56-1.44c-0.21-.37-0.72-0.57-0.64-0.86a4.74,4.74,0,0,0,0-1.94l-0.05-.26a1.18,1.18,0,0,1,0-1c0.11-.16,2.36-1-0.29-0.77l-0.08-.4c2.63-.38.75,0,0.91,0.1a5.62,5.62,0,0,0,.8-0.57c-0.48-.32.74-0.83,0.69-1.1l-0.05-.26c-0.16-.79-0.18-0.65.73-1a1.23,1.23,0,0,0,1.24-1.34c0.13,0,.16-0.17.3-0.2a0.23,0.23,0,0,0,.15.25c0-.13-0.13.15,0,0a1.35,1.35,0,0,1,.06-1l0.13,0c0.53-.1.27-0.72,0.22-1a2.64,2.64,0,0,1,.35-1.78,2.4,2.4,0,0,0,.2-1.1c0.08-.29.4-0.82,0.48-1.11a9.23,9.23,0,0,0,.48-1.77,14.62,14.62,0,0,1,.59-1.64c0.16-.58.75-0.85,0.67-1.24l-0.21-1.06a2.48,2.48,0,0,1,.3-0.88c0.38-.9.79-1.8,1.16-2.7,0.13,0,0,0,.13-0.14a1.74,1.74,0,0,0,.18.13l0.27-.05c0.13,0-.13-1.37.06-1.82a9.13,9.13,0,0,1,.83-2.1,3,3,0,0,0,.63-0.75c0-.13.12-0.51,0.09-0.64l-0.13-.66A4.55,4.55,0,0,1,155,104a2.43,2.43,0,0,1,.09-0.58l0.27-.05c0.27-.05.4-0.07,0.24-0.18-0.34-.34-0.06-0.33.12-0.78s0.53-.82.72-1.27c0.11-.16.36-0.29,0.47-0.45a0.39,0.39,0,0,1,.41,0c-0.13-.66.47-0.45,0.73-0.5L159,100l-0.09-.45c-2.65.24-.34-0.62-0.52-0.86a0.85,0.85,0,0,0,.37-0.76c0-.56-0.05-1.23.75-1.38a2,2,0,0,0,.85-0.58,0.81,0.81,0,0,0,.4-0.77l-0.08-.4a0.49,0.49,0,0,1,.06-0.42c0.16,0.11-.08.29-0.06,0.42L160.75,95l0.05,0.26L160.75,95l0-.13c-0.05-.27-0.16-0.63-0.19-0.76,0.13,0,0,.17.13,0.14l0.27-.05c0.53-.1.77-0.32,0.53-0.82,0-.13-0.19-0.25-0.21-0.38a0.61,0.61,0,0,1,.2-0.39,1.81,1.81,0,0,1,.7.72c0.13,0,.16.12,0.3,0.09a0.44,0.44,0,0,0,.08-0.28c-0.32-.21.06-0.42-0.4-0.61a0.27,0.27,0,0,1,.24-0.18,0.51,0.51,0,0,1,.22-0.32c0.13,0,.11-0.16.24-0.18a0.48,0.48,0,0,1-.29-0.08,1.34,1.34,0,0,1-.43-0.06,0.72,0.72,0,0,0-.35-0.35l0.27-.05c0.13,0,.16.11,0.29,0.09l-0.13,0c-0.21-.37.36-1,0.31-1.29l0-.13a3,3,0,0,1,.25-1.5l0.27-.05a1.72,1.72,0,0,1,.74.24c0.16,0.11.29,0.07,0.21-.33a0.38,0.38,0,0,1,.29-0.62,0.73,0.73,0,0,0,.53-0.11,0.56,0.56,0,0,0,.09-1c-0.16-.11.27,1.38-0.37-1.17l0.53-.1,0.27-.05a4.19,4.19,0,0,0,1,.09c0-.13,0,0-0.13,0l-0.27.05c-0.67.13-1-.15-0.86-0.86l0.25-.15c0.37-.21.48-0.35,0.86-0.56a0.63,0.63,0,0,0,.38-0.89,0.64,0.64,0,0,1,.09-1c0.24-.18,0-0.55.41-0.77a1.43,1.43,0,0,1,1.36,0l0.53,0,0-.13c0-.13-0.56-0.17-0.58-0.3a1.39,1.39,0,0,0-.53-0.31A0.33,0.33,0,0,1,168,80.3a0.63,0.63,0,0,0,.3-0.34,2.25,2.25,0,0,1,.38-0.76c0.4-.77.42-0.63,0.95,0,0.19,0.24-.09.29-0.19,0.45s-0.11.16-.24,0.19a0.41,0.41,0,0,1,.18.24c0.27-.05.56,0,0.83,0,0.11-.16.31,0.14,0.28,0a1.79,1.79,0,0,0-.6-0.92l-0.13,0a2.54,2.54,0,0,0,.23-0.94c0.69,0,.12-1.5,1.05-1a1.48,1.48,0,0,1,.43.07c0,0.13.15,0,.28,0,0-.13-0.08-0.43-0.22-0.4-0.24-.5-0.37-0.49-0.54.09a1.18,1.18,0,0,1,.24-0.88c0.35-.34.67-0.82,1-1.16a9.09,9.09,0,0,1,1.63-1.56,0.51,0.51,0,0,1,.22-0.32,3,3,0,0,0,.56-0.66c0.24-.18.51-0.24,0.56,0l0,0.13c0-.13.11-0.16-0.05-0.26a1.28,1.28,0,0,1,.73-1.24,2.06,2.06,0,0,0,1-.74,2.38,2.38,0,0,1,2-1.21c0.27-.05.53-0.1,0.22-0.32a0.63,0.63,0,0,0,.19.27c0.45,0.19.19-2.54,1.23-.07l0.13,0a4.39,4.39,0,0,1-.87-0.86l-0.1-.53a2.2,2.2,0,0,1,.83-0.71c0.45,0.19,1-.74,1.23-0.79l0.13,0s0,0.13-.13,0-0.13,0-.13,0L182,66c0.13,0,.14.38,0.11,0.25L182.07,66c-0.05-.26,1.53-0.85,2-1.09,0,0.13.31,0.08,0.34,0.21s0,0.41.07,0.67a0.67,0.67,0,0,0,.28-0.19,0.58,0.58,0,0,1,.41-0.22l-0.67.13c0.27-.05.54-0.79,0.94-0.87,0.78-.29,1.16-1.15,1.91-1.58,0.24-.18.25-0.84,0.65-0.92l0.27-.05a1.18,1.18,0,0,1,1.19.42,1.36,1.36,0,0,1,.39.59s0.72,0.13.26,0.63a1.12,1.12,0,0,0,.3.83,0.1,0.1,0,0,0,.11-0.13,0.12,0.12,0,0,0,.11-0.14,4.72,4.72,0,0,1-.14-1.44c0.69,0,.68,1.35.18-1.23l0.13,0,1.07-.21c0.67-.13,1.35.52,2,0.52a0.68,0.68,0,0,1,.34.33,0.74,0.74,0,0,1-.81.7,1.59,1.59,0,0,0-1.12.49l0.1,0.53a2.2,2.2,0,0,0,.88-0.31c0.24-.18.93-0.46,1-0.06h0.74l-0.05-.26-0.1-.53,0,0.13c0.1,0.53.55,0.31,0.82,0.25s0.9,0,1.3-.12l0.13,0c0.67-.13,1.7.87,2.07,1.35s0.44,0.84.71,0.79l0.13,0c-0.11-2.66.35-1.65,0.25-2.18l-0.05-.26,0.17,0.1a4.54,4.54,0,0,0,.44,1.15,0.52,0.52,0,0,1,.15.24c0.13,0,.09-0.16.23-0.18S200.87,64,201,63.8c0.16,0.11-.34.48-0.29,0.74l0.08,0.4c0,0.13,1.19-.1,1.35,0,0.11-.16,1.27-0.39,1.25-0.52l-0.18-.93c0-.13-0.41-0.19-0.44-0.33a0.5,0.5,0,0,1-.06.29l0.6,0.16a0.65,0.65,0,0,1,.13.25c0,0.13,0,.4-0.09.43-0.56,0-.1.29-0.1,0.29,0.19,0.24.74,0.27,0.1,0.53,0.13,0,.16.11,0.29,0.08,0.56,0,.45-0.5.54-0.79,0-.13-0.5-0.18-0.52-0.31,0.16,0.11-.26.33-0.23,0.46l0,0.13c2.58-.64,1.21.31,1.51,0.39,0.59,0.16.18,0.79,0.71,0.69s0.38,0.47.54,0.58a1.21,1.21,0,0,1,.44.46c0.05,0.26.27,0.5,0.6,0a4.75,4.75,0,0,0,1,.63c0.13,0,.19.24,0.22,0.37s0.7,0,.19.24c0,0.13.19,0.24,0.21,0.37,0.48,0.32.69,0.69,1,.9a4.33,4.33,0,0,1-1.28-.16l-0.34-.31c0.16,0.11.14,0,.27,0l0.27-.05,0.4-.08,0.53-.1a6,6,0,0,1,.58.82s0.06,0.31-.07.34S210.1,70,210,70a3.17,3.17,0,0,0,.43.79c0.78-.29.78,0.42,1.12,0.77a1.48,1.48,0,0,0,.42.75,0.28,0.28,0,0,1-.08.3c-0.4.77,0.1,1.22,0.47,1.7a3.4,3.4,0,0,1,.58,1.54c0.1,0.53.07,1.08,0.18,1.62a4.41,4.41,0,0,1-.09,2.35,0.51,0.51,0,0,0-.21.32c0.56,0.72-.43,1.32-0.12,2.22,0.16,0.11-.13.3-0.34,0.62s0.14,0.25.17,0.38l0.05,0.26,0.36,1.85L213,85.78,213,86c-2.55.77-.92,0.73-0.84,1.13s-0.55.66-.79,0.84a1,1,0,0,0-.6.39l0.08,0.4a2.65,2.65,0,0,1-.46,1.47,8.47,8.47,0,0,1-1,2,0.69,0.69,0,0,1-.28.6l-0.88,1.82a1.86,1.86,0,0,0-.29.61c-0.11.16-.08,0.29-0.24,0.18-0.43-.05-0.56,0-0.37.21,0.16,0.79-.33,1.16-0.62,1.77a4.23,4.23,0,0,1-.91,1.69,0.51,0.51,0,0,1-.22.32,2.93,2.93,0,0,1-.62,1.08c-0.32.48-.56,0.66-0.89,1.14,0,0.13-.24.18-0.37,0.21,0.07,1.09-.92,1.69-1.32,2.46-0.49,1.06-1.16,1.88-1.67,2.8-0.21.32-.46,0.5-0.67,0.82a16.51,16.51,0,0,0-1.88,2.43,3.05,3.05,0,0,1-1.58,1.13,0.42,0.42,0,0,1-.08.29c-0.08.29,0.16,0.79-.54,0.79,0,0-.27.05-0.24,0.19a6.92,6.92,0,0,1-1.8,2.14,14.39,14.39,0,0,0-1.26,1.35c-0.21.32-.56,0.66-0.78,1,0,0.13.23,0,.26,0.09-0.13,0,0,0,0,.14l0,0.13c-2.6.51-1,.47-1.33,0.81-0.91,1-2.23,1.95-3.12,3.08-0.59.53-1.3,1.08-1.89,1.61a8.65,8.65,0,0,1-1.22,1.2,2.33,2.33,0,0,0-.51.38c-0.37.21-.6,0.53-1,0.74a6,6,0,0,0-.84.73c-0.72.55-1.21,1.63-1.88,1.76L180,128a0.44,0.44,0,0,1,.08-0.31,0.43,0.43,0,0,1,.08-0.3,0.41,0.41,0,0,1-.24.18c-0.06.42-.59,0.53-0.49,1.06a3,3,0,0,1-.59.53,0.65,0.65,0,0,1-.64.26c-0.5-.45-0.75-0.27-0.75.42a0.29,0.29,0,0,1-.21.32,1.49,1.49,0,0,1-1.5.84,0.29,0.29,0,0,0-.21.32,0.84,0.84,0,0,1-.94.87c-0.59-.16-0.71.63-0.9,1.08-0.35.34-.28,1.38-0.82,1.48l-0.13,0a4.86,4.86,0,0,0-1.75.95,5.89,5.89,0,0,0-1.41.58,1.2,1.2,0,0,1-1,.06,0.49,0.49,0,0,0-.41,0c0,0.56-.84.68-1,1.13-0.88-.24-1.37.8-2.38,0.59a3,3,0,0,1-.58.57,7.65,7.65,0,0,1-1.92.83l-0.93.18a1,1,0,0,1-1-.39c-0.19-.24-0.34-0.3-0.42,0-0.91,1-.69,2.15-0.88,3.29,0,0.56-.33,1.14-0.36,1.7,0,0.82-.44,1.59-0.44,2.28,0,0.13-.81.42-0.76,0.69l0.1,0.53,0.08,0.4a14.2,14.2,0,0,0,1,3.25c-0.46,1.19,1.14,2.11.52,3.2-0.11.16,0.07,0.26,0.23,0.37a4.63,4.63,0,0,1,0,1.92,4.28,4.28,0,0,1-.48.92c-0.11.16-.07,0.23-0.18,0.39,0,1,0,.76-0.77.92l-0.84.17,0,0.12c0.1,0.53.62,1.25,0.22,1.33-0.67.13-.23,0.73-0.47,0.92a1.79,1.79,0,0,1-1.33.53,2.71,2.71,0,0,0-1.88.78,2.23,2.23,0,0,1-.89.31Zm1.45-31.49a0.6,0.6,0,0,0-.43-0.05c-0.16-.11-0.13,0-0.13,0a1.68,1.68,0,0,0,.29.77l0.4-.08Zm9-6.3c0.27-.05.24-0.19,0.4-0.08a2.07,2.07,0,0,0,1.66-.74c0-.13.24-0.18,0.24-0.18a0.72,0.72,0,0,0,1-.47,1.93,1.93,0,0,1,.48-0.37c0.51-.24.75-1.11,1.5-0.84a0.13,0.13,0,0,1,.11-0.16c0.51-.24,1.15-0.5,1.66-0.74s0.48-.37.27-0.74a0.51,0.51,0,0,1,.21-0.32c0.35-.34.85-0.63,1.2-1a1.9,1.9,0,0,1,1.36-.87l0.13,0a2,2,0,0,1,.76-1.06s-0.18.13,0,.1a0.1,0.1,0,1,1,0,.1l-0.08-.4-0.05-.26s0.89,0,1-.06a1.49,1.49,0,0,1,.17-0.72,12.85,12.85,0,0,1,1.18-.78,19.27,19.27,0,0,1,2.08-1.64c0.24-.18-0.06-0.4.24-0.32s0,0.13,0,.13l-0.1-.53c0-.13.11-0.16,0-0.13,0.35-.34.6-0.8,0.85-1,0-.13.21-0.18,0.21-0.18,0.64,0.42.61,0,.8-0.43,0.11-.16.08-0.43,0.19-0.59s0.15-.72.41-0.08l0.11-.16a1.9,1.9,0,0,0,.46-0.5,0.62,0.62,0,0,0,.46-0.51c0.13,0,.14-0.73.27-0.75l-0.4.08-0.4.08c0.13,0,.32.22,0.43,0.07,0.51-.24.59-1.21,1.5-0.84a3.82,3.82,0,0,0,1-.8c0.24-.18.76-0.39,0.25-0.84l0.11-.14c0.24-.18.17,0,0.3,0,0.56,0,.25-0.31.17-0.71l-0.05-.26c-0.05-.26,1,0,1.44-0.1l0.4-.08c0.53-.1.61-1.11,1.17-1.08a1.08,1.08,0,0,0,.43-0.64,1.11,1.11,0,0,1,.42-0.71,0.32,0.32,0,0,1,.07-0.33,16.25,16.25,0,0,1,.48-1.63,0.14,0.14,0,0,1,.07-0.17l0,0.13a0.34,0.34,0,0,0,.51.31,1.44,1.44,0,0,0,.49-0.78,3.32,3.32,0,0,0,.61-0.67c0.24-.18.37-0.32,0.62-0.51,0.13,0,.11-0.27.11-0.27l-0.27.05a0.45,0.45,0,0,0-.22.29,0.39,0.39,0,0,0,.07-0.37c0-.13.11-0.13,0.09-0.26-0.29-.77.54-0.78,0.7-1.36,0,0.13-.44.23-0.28,0.34a3,3,0,0,0-.28.34l0,0.13c2.6-.51.69-0.41,0.69-0.41-0.32-.21.28-0.19,0.38-0.35a0.76,0.76,0,0,0,.45-0.64c-0.08-.4-0.87-0.24-1.09.08,0,0.13-.66.13-0.64,0.26l-0.08-.4c2.55-.77,1.57-0.86,2-1.36a18.45,18.45,0,0,0,1.46-1.25,0.83,0.83,0,0,0,0-.56,2.07,2.07,0,0,1,.43-0.63c0.05,0.26.72,0.13,0.77,0.4l0.05,0.26,0-.13-0.13-.66c-0.05-.26-0.45-0.19-0.37-0.48a3,3,0,0,0,.23-0.59c-0.32-.21-0.08-0.26,0-0.42,0.3-.61,1-1,0.87-1.82a0.13,0.13,0,0,1,.1-0.16,3.11,3.11,0,0,0,.75-1.11,14.77,14.77,0,0,0,.68-2.19c0.09-1,.78-1.67,1.11-2.83a12.2,12.2,0,0,1,.57-2c0-1.64.6-3.28,0-4.82a1.66,1.66,0,0,0-.93-1.19,1.21,1.21,0,0,0-.44-0.46,0.66,0.66,0,0,0-.72.28l-0.13-.66a1.2,1.2,0,0,1-.54.38c-0.21-.37-0.48-0.18-0.72,0a0.45,0.45,0,0,1-.42.08c-0.93.18-2,0-2.68,0.52a3.43,3.43,0,0,1-1,.34,0.51,0.51,0,0,0-.38.21,1.16,1.16,0,0,1-.59.53c-1.07.9-2.3,1.69-3.51,2.61-0.35.34-.83,0.71-1.18,1.06a19.69,19.69,0,0,0-1.53,1.4,2.48,2.48,0,0,0-1,1.32,4,4,0,0,1-1.42,2l-0.13,0a0.45,0.45,0,0,0-.49.34,0.22,0.22,0,0,1-.1.21,1.29,1.29,0,0,0-1.29,1.17c0,0.13-.11.14-0.09,0.27-0.37.21-.59,0.52-1,0.73-0.3.61-.3,1.29-0.94,1.55a0.29,0.29,0,0,0-.22.31c-0.13,0-.08.29-0.08,0.29a1.58,1.58,0,0,0-.91,1,1.88,1.88,0,0,1-.73,1.24c-0.43.63-.73,1.24-1.16,1.88a4.07,4.07,0,0,0-.86,1.27,1.22,1.22,0,0,1-.65,1,1.94,1.94,0,0,1-.19.45c0,0.13-.08.29-0.06,0.42-0.27.74-1.29,1.21-1.24,2.17a0.13,0.13,0,0,1-.11.16c-0.19.45-.4,0.77-0.59,1.22a0.5,0.5,0,0,1-.37.21,1.86,1.86,0,0,0-.3.61,0.74,0.74,0,0,1-.14.72c-0.08.29-.32,0.48-0.4,0.77-0.38.9-.78,1.67-1.19,2.43-0.08.29-.21,0.32-0.3,0.61a4.51,4.51,0,0,1-.54,1.48,21.8,21.8,0,0,0-.87,2.64,5.38,5.38,0,0,0-.3.61,8.67,8.67,0,0,0-.79,2.35,12.59,12.59,0,0,0-.89,1.82,30.44,30.44,0,0,1-1.06,3.09c-0.21.32-.27,0.74-0.49,1.06a5,5,0,0,1-.38,1.59,20.29,20.29,0,0,0-.89,2.51,6.33,6.33,0,0,1-.62,1.77,1.7,1.7,0,0,0,0,.82A3.13,3.13,0,0,1,162.43,125.24Zm6.8,9.25a0.85,0.85,0,0,0-1,.34l0.32,0.21A2.3,2.3,0,0,0,169.23,134.49Zm3.33-58-0.08-.4a0.75,0.75,0,0,0-.59.53c0.13,0,.16.11,0.29,0.08A0.6,0.6,0,0,0,172.56,76.51Zm10.32,44.85a0.92,0.92,0,0,0-.5-0.45,2.05,2.05,0,0,0-.43.64,0.48,0.48,0,0,0,.29.08A1.23,1.23,0,0,1,182.88,121.37Zm5.67-56.64a1.7,1.7,0,0,0-.29-0.77l-0.13,0a0.47,0.47,0,0,0-.08.29,1,1,0,0,0,.37.48l0.1,0.53A0.81,0.81,0,0,0,188.55,64.72Zm12.26,16.57a2,2,0,0,0,.48-0.37c0.13,0,.08-0.29.08-0.29a0.72,0.72,0,0,0-.45-0.19,0.51,0.51,0,0,0-.21.32l0.1,0.53c-0.24-.5-0.72-0.13-1.15-0.19l0,0.13c0.27-.05.53,0.58,0.88,0.24A0.27,0.27,0,0,1,200.81,81.29Zm4.93,15.25a0.32,0.32,0,0,1,.53-0.1,1.15,1.15,0,0,0,.67-0.13L206.89,96a4.4,4.4,0,0,0-.56-0.72,2,2,0,0,1-.16.58l-0.4.08a1.42,1.42,0,0,1-.3.61l0.05,0.26Z"/><path class="cls-2" d="M212.19,144c-0.08.4-.06,0.52-0.57,0.59l-0.25,0c0.45-2.56-.51-1-0.45-1.52a10.13,10.13,0,0,0-.86-1.71,2.82,2.82,0,0,1-.72-2.62,3,3,0,0,0-.26-2.09A9.26,9.26,0,0,1,209,134a3.32,3.32,0,0,0,.14-0.93,16,16,0,0,1,.06-3.61c0-1.67-.43-3.42,0-5.14,0.19-.54-0.21-1.13-0.17-1.78a0.22,0.22,0,0,1,.22.23l0-.35,0.14,0a13.56,13.56,0,0,0-.4-2l-0.06-.51c-0.1-.76.41-1.08,1-1.66,0.35-.3,1.23-0.8,1.16-1.3l-0.06-.5a1.68,1.68,0,0,0-.28-1,1.83,1.83,0,0,1-.32-0.86,33.44,33.44,0,0,0,.31-3.89,18.29,18.29,0,0,1,.54-2.51c0.13,0,.32-0.3.18-0.41a4,4,0,0,1,.29-2.73,17.55,17.55,0,0,1,1.08-3.73,12.93,12.93,0,0,1,.28-1.83,1.62,1.62,0,0,1,.41-0.82,2.38,2.38,0,0,0,.13-1,6.67,6.67,0,0,1,.4-2c0.48-1.34,1.07-2.83,1.67-4.19a14.3,14.3,0,0,1,.91-3c0.65-1,1.42-2.08,2.69-2.24l0.51-.06a4.25,4.25,0,0,1,3.1,1,11.79,11.79,0,0,0,2.36,1.29,3.48,3.48,0,0,1,2.38,2.42,14.46,14.46,0,0,1,.17,3.39,1.19,1.19,0,0,1-.28.84c-0.11.14-.22,0.3-0.22,0.3a20.49,20.49,0,0,1-1.72,3.82c-0.49,1.22-.83,2.68-1.43,4-0.54,1.87-1,3.59-1.51,5.46a20.77,20.77,0,0,0-.88,3.32,17.94,17.94,0,0,1-.41,2.88c-0.16.79-.3,1.71-0.46,2.5a10.09,10.09,0,0,0-.14,1.94l-0.19,1.56c-0.4.95-.27,2-1,2.69a2.08,2.08,0,0,0,.4,1.11,2.46,2.46,0,0,1,0,1,45.35,45.35,0,0,0-.43,5.83,10.59,10.59,0,0,1-.54,1.87,0.8,0.8,0,0,0,.14,1.14,1.37,1.37,0,0,1,.13,1,3.31,3.31,0,0,0-.25,1.06c0.06,0.51.25,1-.65,1a2.54,2.54,0,0,0-.16.79,3.32,3.32,0,0,1-.86,2.42,5.89,5.89,0,0,0-.16.83c-0.38,1.08-1.55,0-2.13,2.62l-0.64.08c-0.38,0-1.2-2.35-1.27.16l-0.25,0A1.13,1.13,0,0,1,212.19,144Zm-0.44-11.71c0.11-.14-0.14-0.11-0.29-0.22a1,1,0,0,0-.45.57,1,1,0,0,0,.54.19A1.86,1.86,0,0,0,211.75,132.32Z"/><path class="cls-3" d="M228.74,142.67a1.37,1.37,0,0,0-.65,0,1.48,1.48,0,0,1-1-.56,1.56,1.56,0,0,0-.73-0.4,1.61,1.61,0,0,1-.92-0.25,0.72,0.72,0,0,1-.58-0.75,6.36,6.36,0,0,0,0-2.37,1.6,1.6,0,0,0-.58-0.75,0.64,0.64,0,0,1-.16-0.83,16.59,16.59,0,0,1,1.27-2.4,0.1,0.1,0,0,1,.08-0.12c0.92-.29,1-1.16,1.37-1.88a4.62,4.62,0,0,1,1.2-1.64,2.56,2.56,0,0,0,.72-0.79,34.63,34.63,0,0,0,2.57-4.06c0.88-.5,1-1.6,1.62-2.26a8.56,8.56,0,0,1,.86-1.14,3.3,3.3,0,0,1,.8-0.91A3.37,3.37,0,0,1,236,119.8l0.08-.13a8.16,8.16,0,0,1,1.85-2.73,0.72,0.72,0,0,1,1-.52c0.23,0.06.75,0,.23-0.48-0.29-.37.2-1.22,0.8-1.45,0.31-.06.29-0.17,0.44-0.52a9.06,9.06,0,0,1,1.45-2c0.51-.75,1.16-1.3,1.77-2.07a1.11,1.11,0,0,1,.76-0.58c0.1,0,.31-0.06.29-0.17-0.08-1,.82-1.35,1.37-1.89a29.67,29.67,0,0,1,2.82-3.35c0.17-.25.3-0.71,0.55-1.08,0.53-.64,1.2-1.1,1.72-1.74a13.74,13.74,0,0,0,.91-1.47,4.39,4.39,0,0,1,.47-1,13.27,13.27,0,0,0,1.45-2,0.3,0.3,0,0,0-.21-0.5,1.13,1.13,0,0,0-.56-0.1,5.64,5.64,0,0,0-3.06,1,2.45,2.45,0,0,1-1.09.54,6.56,6.56,0,0,0-1.15.76,13.22,13.22,0,0,1-1.64,1.08c-2.41,1-4.67,2.21-7.06,3.32a9.93,9.93,0,0,1-3,.8c-1.36.27-2.55-.25-3.91-0.53a8.85,8.85,0,0,1-1.86-.6,1.62,1.62,0,0,1-.89-2.31,0.33,0.33,0,0,1,.06-0.23,23.29,23.29,0,0,1,4.05-2.63,9,9,0,0,0,1.93-1.24c0.5-.21.86-0.6,1.26-0.79a0.68,0.68,0,0,0,.51-0.75c0-.87.13-1,1.05-1.28a0.92,0.92,0,0,0,.57-0.43,1.11,1.11,0,0,0,.4-0.19c0,0.1.13,0.08,0.15,0.19a0.37,0.37,0,0,0,.42.46A0.57,0.57,0,0,0,240.2,93a0.83,0.83,0,0,1-.5-0.33c-0.12-.08-0.21,0-0.34,0a10,10,0,0,0,.88-0.5l1.51-.62c0.31-.06.55-0.54,0.94-0.18a1.53,1.53,0,0,0,.27-0.27A5.09,5.09,0,0,1,245,89.9a4.12,4.12,0,0,0,1.89-.91c0.08-.12.42-0.08,0.5-0.21a0.56,0.56,0,0,0,.38-0.29,0.27,0.27,0,0,1,.4-0.19,0.61,0.61,0,0,0,1-.21c0.4-.72,1-0.74,1.62-1.18,0.78-.48,1.74-0.56,2.47-1.24a0.64,0.64,0,0,1,.4-0.19,8.54,8.54,0,0,0,2.18-1.07c0.69-.35,1.49-0.72,2.18-1.07a2.94,2.94,0,0,0,1.32-.48,0.9,0.9,0,0,1,.58.21l0.21,0c0.73-.14,1.33-1.55,2.48-1.78a19.83,19.83,0,0,0,2-.88c1-.31,2.11-0.87,3.43-0.27a0.72,0.72,0,0,1,.52,1c-0.11.56,0,.53,0.62,0.41a0.82,0.82,0,0,0,.4-0.19,1.54,1.54,0,0,1,2.11.77,0.52,0.52,0,0,1,.17.29,2,2,0,0,1,.36,2.41c0,0.1-.06.23,0,0.33a6.21,6.21,0,0,1-.88,3.84,19.71,19.71,0,0,1-2.72,4.41,18.14,18.14,0,0,0-1.73,2.28c-0.51.75-1,1.39-1.64,2.15-0.44.52-.76,1.12-1.2,1.64-0.9.93-1.43,2.11-2.5,2.75-0.38.29-.17,0.79-0.67,1a3,3,0,0,1-1,.75,0.37,0.37,0,0,0-.06.23,0.26,0.26,0,0,1,0,.44c-0.63.66-1.24,1.43-1.79,2-0.19.14-.52,0.1-0.23,0.48a1.53,1.53,0,0,0-.27.27c-0.7.89-1.43,1.57-2.15,2.36-0.08.12-.27,0.27-0.36,0.39a12.63,12.63,0,0,0-2,1.9,3.55,3.55,0,0,1-1.26,1.33,2.3,2.3,0,0,1-.84.16c-0.54,0-.71.24-0.51,0.73a0.31,0.31,0,0,1,.14.18l-0.31.06-0.31.07c-0.46-.13-0.51.16-0.45,0.47a0.93,0.93,0,0,1-.48,1.42,2.32,2.32,0,0,1-.54.55c-0.27.27-.4,0.73-0.86,0.61-0.13-.08-0.19.15-0.17,0.25,0.35,0.68-.51.75-0.67,1-0.13.46-.55,0.54-0.67,1a1.12,1.12,0,0,1-.76.58,0.83,0.83,0,0,1-.23.48c-0.8.91-1.1,2.16-2.42,2.63-0.21,0-.19.14,0,0.33,0.33,0,.37.25,0.21,0.5-0.51.75-1.53,1.7-2.14,2.47-0.36.39,0.68,0.51-1.25,1.43l0,0.21c2-.4,2-0.18,2.75-0.43a13.56,13.56,0,0,0,2.86-1c1.42-.49,3-1,4.28-1.48s2.78-1.08,4.31-1.6c0.11,0,.11-0.13.22-0.15,1.32,0.06,2.36-.79,3.49-1.11,1.55-.41,3.09-0.93,4.61-1.44a31.37,31.37,0,0,0,3.17-1.05,1.79,1.79,0,0,1,.25.71c0,0.1.23,0.06,0.34,0s0.06-.23.06-0.23c-0.15-.19-0.5-0.33-0.64-0.52l3.81-1.07a5.36,5.36,0,0,1,1.22-.45,1.48,1.48,0,0,1,1.17-.12c0,0.1.21,0,.4-0.19a1.8,1.8,0,0,1,1.24-.35c0.1,0,.28.31,0.36,0.18,0.15-.35.66,0,1,0l0.52-.1c1.26-.25,2.19-1,3.37-1.13,0.21,0,.27-0.29.48-0.33,0.94-.18,1.85-0.53,2.69-0.7a0.85,0.85,0,0,1,1.25.26,1.39,1.39,0,0,0,1.08.53c0.65,0,1.38-.17,2.13-0.21a22.4,22.4,0,0,1,2.63.13,1.84,1.84,0,0,1,1.11.65c0,0.1-.1,0-0.1,0l-0.94.18a1,1,0,0,0-.64,1.19,1.12,1.12,0,0,1-.46,1,11.8,11.8,0,0,0-1.16,1.28,4.78,4.78,0,0,0-1.38.74,2.93,2.93,0,0,1-1.63.56,4.09,4.09,0,0,0-1,.32c-0.5.21-1,.31-1.63,0.54s-1.09.54-1.59,0.75a0.66,0.66,0,0,1-.54,0c-0.4-.35-0.48-0.23-0.86.06a9.17,9.17,0,0,1-2.34.79,1.05,1.05,0,0,1-.6-0.3l-0.42.08c-0.75,2.25-2,1.36-3.21,1.37a3,3,0,0,0-1.08.58,8.09,8.09,0,0,1-1.58.82,5.8,5.8,0,0,1-1.19.6c-0.59.33-1.17,0.14-1.61,0.66a8.33,8.33,0,0,1-1.63.55c-0.5.21-1.13,0.33-1.63,0.54a11.05,11.05,0,0,1-2.41,1c-1.19.56-2.43,0.91-3.63,1.47-1,.62-2.07.51-3.14,1.15-1.36.81-3,1.14-4.49,2.06a18.43,18.43,0,0,1-2.43.91c-0.42.08-.86,0.6-1.49,0.72-0.84.16-1.49,0.72-2.33,0.89a9,9,0,0,0-1.49.72c-1,.41-1.91.8-2.93,1.11a28.31,28.31,0,0,0-3,1.24,53.62,53.62,0,0,1-5.51,1.83C229.18,142.69,229,142.63,228.74,142.67Zm3-11.69a0.36,0.36,0,0,1,.15-0.35l0.52-.1c0.1,0,.17-0.25.27-0.27s-0.12-.08-0.23-0.06l-0.37-.25a1.18,1.18,0,0,0-.69-0.19c-0.27.27,0.38,0.25,0.33,0.58a1.05,1.05,0,0,1,.17.29,2.1,2.1,0,0,0-.82.27,0.39,0.39,0,0,0-.29.17,2.8,2.8,0,0,0,.73.4C231.77,131.52,231.71,131.2,231.78,131Zm0-2.37a5.2,5.2,0,0,0,.17-0.79,4.85,4.85,0,0,0-.8.37c0,0.1-.19.14-0.4,0.19l-0.1,0a2.92,2.92,0,0,0,.52.44C231.41,129.11,231.73,129,231.75,128.61Zm0.79,0.17a0.56,0.56,0,0,0-.27-0.27c-0.08.12-.17,0.25,0,0.33s0.06,0.31.17,0.29a1.17,1.17,0,0,0,.65,0A1.48,1.48,0,0,0,232.54,128.78Zm2.53-4.27-0.25-.17a0.37,0.37,0,0,0-.06.23l0.13,0.08C235,124.63,235,124.53,235.07,124.51Zm1.37-1.34a3.11,3.11,0,0,0,0-1.08,0.39,0.39,0,0,0-.35-0.15c-0.12-.08-0.19.15-0.27,0.27L236,123s-0.1,0-.06.23l0.38,0.25C236.27,123.41,236.46,123.27,236.44,123.16Zm1.18-2.28a1.13,1.13,0,0,0-.56-0.1,1.12,1.12,0,0,0-.36.39c0.1,0,.34,0,0.44,0A1.81,1.81,0,0,0,237.62,120.88Zm0.53-1.18a0.23,0.23,0,0,0-.25-0.17,0.47,0.47,0,0,0-.53.64,1.08,1.08,0,0,0,.33,0C237.8,120.1,238.24,120.12,238.15,119.7Zm0.86-1.14a1.63,1.63,0,0,0-.71-0.29c0,0.1,0,.33,0,0.44a1.06,1.06,0,0,0,.17.29A1.81,1.81,0,0,0,239,118.56Zm1.55,4a0.57,0.57,0,0,0-.35-0.15l-0.17.25a0.37,0.37,0,0,0,.23.06C240.29,122.84,240.37,122.72,240.56,122.57Zm6.71,8.17a1.53,1.53,0,0,1-.35-0.15c-0.34,0-.27.27-0.34,0.5a0.37,0.37,0,0,0,.15.19A1.13,1.13,0,0,0,247.27,130.74Zm2.18-.53a1.56,1.56,0,0,0-.46-0.13,0.4,0.4,0,0,0-.17.25l0.25,0.17A1.56,1.56,0,0,0,249.45,130.21Zm2.31-1c0.1,0,.06-0.23.06-0.23l-0.1,0a7.21,7.21,0,0,0-.78.48l-0.08.12c0,0.1.15,0.19,0.12,0.08A7.21,7.21,0,0,0,251.76,129.22Zm3.2-.84a0.56,0.56,0,0,0-.08-0.41c-0.23.48-.37-0.25-0.65,0a3.2,3.2,0,0,0-.76.58l-0.09.12a0.41,0.41,0,0,0,.25.17,1.42,1.42,0,0,1,.54,0A2,2,0,0,1,255,128.37Zm3.73-1.48,0.08-.13-0.12-.08a6.13,6.13,0,0,1-1.34.37l-0.31.06a0.56,0.56,0,0,0,.27.27c0.12,0.08.21,0,.23,0.06Zm3.06-1a0.65,0.65,0,0,0,.4-0.19,0.32,0.32,0,0,0-.15-0.19,0.81,0.81,0,0,1-.15.35c-0.1,0-.08.12-0.19,0.14a0.79,0.79,0,0,1-.19-0.39,0.57,0.57,0,0,0-.42.08c-0.11,0-.09.12-0.19,0.14a1.56,1.56,0,0,1,.46.13c0.1,0,.23.06,0.33,0Zm1.65-.43a1.57,1.57,0,0,0,.38-0.29c0.1,0,.06-0.23.17-0.25-0.1,0-.23-0.06-0.33,0a0.52,0.52,0,0,1-.4.19,3.3,3.3,0,0,0-.55.54Z"/><path class="cls-4" d="M275.08,132.28a1.27,1.27,0,0,0-.6,0,1.37,1.37,0,0,1-.91-0.52,1.45,1.45,0,0,0-.68-0.37,1.49,1.49,0,0,1-.85-0.23,0.67,0.67,0,0,1-.54-0.69,5.89,5.89,0,0,0,0-2.19,1.48,1.48,0,0,0-.54-0.69,0.59,0.59,0,0,1-.15-0.77A15.37,15.37,0,0,1,272,124.6a0.1,0.1,0,0,1,.08-0.12c0.85-.27.9-1.07,1.27-1.75a4.28,4.28,0,0,1,1.11-1.52,2.37,2.37,0,0,0,.66-0.73,32.09,32.09,0,0,0,2.38-3.76c0.82-.46.92-1.48,1.5-2.09a7.93,7.93,0,0,1,.8-1.05,3.06,3.06,0,0,1,.74-0.84,3.12,3.12,0,0,1,1.29-1.65l0.08-.12a7.56,7.56,0,0,1,1.72-2.53,0.67,0.67,0,0,1,.91-0.48c0.21,0.06.7,0,.22-0.44a1.12,1.12,0,0,1,.74-1.34c0.29-.06.27-0.15,0.41-0.48a8.42,8.42,0,0,1,1.35-1.86c0.47-.69,1.07-1.21,1.64-1.92a1,1,0,0,1,.7-0.54c0.1,0,.29-0.06.27-0.15-0.07-.88.76-1.25,1.27-1.75a27.48,27.48,0,0,1,2.61-3.11c0.16-.23.28-0.65,0.51-1,0.49-.59,1.11-1,1.6-1.61a13.13,13.13,0,0,0,.84-1.36,4,4,0,0,1,.43-0.88,12.29,12.29,0,0,0,1.35-1.86,0.28,0.28,0,0,0-.19-0.46,1.05,1.05,0,0,0-.52-0.1,5.23,5.23,0,0,0-2.83,1,2.26,2.26,0,0,1-1,.5,6.07,6.07,0,0,0-1.07.71,12.33,12.33,0,0,1-1.52,1c-2.23.94-4.33,2-6.55,3.08a9.2,9.2,0,0,1-2.77.74c-1.26.25-2.36-.24-3.62-0.49a8.2,8.2,0,0,1-1.72-.56,1.5,1.5,0,0,1-.82-2.14,0.3,0.3,0,0,1,.06-0.21,21.58,21.58,0,0,1,3.75-2.43,8.36,8.36,0,0,0,1.79-1.15c0.47-.19.8-0.56,1.17-0.73a0.64,0.64,0,0,0,.47-0.69,1,1,0,0,1,1-1.19,0.86,0.86,0,0,0,.53-0.4,1,1,0,0,0,.37-0.17c0,0.1.11,0.08,0.13,0.17a0.34,0.34,0,0,0,.39.42,0.53,0.53,0,0,0,.25-0.25,0.77,0.77,0,0,1-.46-0.31c-0.11-.08-0.19,0-0.31,0,0.39-.08.52-0.4,0.82-0.46l1.4-.57c0.29-.06.51-0.5,0.87-0.17a1.4,1.4,0,0,0,.25-0.25,4.73,4.73,0,0,1,1.91-1.07,3.8,3.8,0,0,0,1.75-.84c0.08-.12.39-0.08,0.47-0.19a0.51,0.51,0,0,0,.35-0.27,0.25,0.25,0,0,1,.37-0.17,0.56,0.56,0,0,0,1-.19c0.37-.67,1-0.69,1.5-1.09a11.65,11.65,0,0,0,2.29-1.15,0.59,0.59,0,0,1,.37-0.17,7.92,7.92,0,0,0,2-1l2-1a2.72,2.72,0,0,0,1.22-.44,0.84,0.84,0,0,1,.54.19l0.19,0c0.68-.13,1.23-1.44,2.3-1.65a18.37,18.37,0,0,0,1.85-.81c1-.29,2-0.81,3.18-0.25a0.66,0.66,0,0,1,.48.89c-0.1.52,0,.49,0.58,0.38a0.76,0.76,0,0,0,.37-0.17,1.43,1.43,0,0,1,2,.71,0.48,0.48,0,0,1,.15.27,1.9,1.9,0,0,1,.34,2.23c0,0.1-.06.21,0,0.31a5.75,5.75,0,0,1-.82,3.55A18.26,18.26,0,0,1,312,86.59a17,17,0,0,0-1.6,2.11c-0.47.69-1,1.29-1.52,2-0.41.48-.7,1-1.11,1.52-0.84.86-1.33,2-2.32,2.55-0.35.27-.16,0.73-0.62,0.92a2.8,2.8,0,0,1-1,.69,0.34,0.34,0,0,0-.06.21,0.24,0.24,0,0,1,0,.4c-0.58.61-1.15,1.32-1.66,1.82-0.18.13-.49,0.1-0.22,0.44a1.44,1.44,0,0,0-.25.25c-0.64.83-1.32,1.46-2,2.19-0.08.11-.25,0.25-0.33,0.36a11.73,11.73,0,0,0-1.87,1.77,3.3,3.3,0,0,1-1.17,1.23,2.12,2.12,0,0,1-.78.15c-0.5,0-.66.22-0.47,0.68a0.29,0.29,0,0,1,.13.16l-0.29.06-0.29.07c-0.43-.12-0.47.15-0.42,0.44a0.86,0.86,0,0,1-.45,1.31,2.13,2.13,0,0,1-.5.51c-0.25.25-.37,0.68-0.8,0.56-0.11-.08-0.17.14-0.16,0.23,0.33,0.63-.47.69-0.62,0.92-0.12.42-.51,0.5-0.63,0.92a1,1,0,0,1-.7.54,0.77,0.77,0,0,1-.22.44c-0.74.84-1,2-2.24,2.44-0.19,0-.17.13,0,0.31,0.31,0,.35.23,0.19,0.46-0.47.69-.67,1.43-1.24,2.14a1.27,1.27,0,0,0-.42,1.18l0,0.19a7.64,7.64,0,0,0,1.81-.26,9.37,9.37,0,0,0,2.27-.85l3.78-1.34c1.3-.55,2.48-1,3.9-1.46,0.1,0,.06-0.11.15-0.13,1.22,0.06,2.16-.72,3.21-1,1.44-.38,2.85-0.86,4.26-1.34a28.92,28.92,0,0,0,2.93-1,1.64,1.64,0,0,1,.23.65c0,0.1.21,0.06,0.31,0s0.06-.21.06-0.21c-0.14-.17-0.46-0.31-0.6-0.48l3.53-1a5,5,0,0,1,1.13-.42,1.37,1.37,0,0,1,1.09-.11c0,0.1.19,0,.37-0.17a1.67,1.67,0,0,1,1.15-.32c0.1,0,.26.29,0.33,0.17,0.14-.33.61,0,0.9,0l0.49-.1c1.16-.23,2-0.93,3.12-1,0.19,0,.25-0.27.44-0.3,0.87-.17,1.71-0.49,2.49-0.65a0.79,0.79,0,0,1,1.16.24,1.29,1.29,0,0,0,1,.49c0.6,0,1.28-.16,2-0.2a20.84,20.84,0,0,1,2.44.12,1.7,1.7,0,0,1,1,.61c0,0.1-.1,0-0.1,0l-0.87.17a1,1,0,0,0-.59,1.1,1,1,0,0,1-.42.93,10.7,10.7,0,0,0-1.08,1.18,4.42,4.42,0,0,0-1.28.69,2.71,2.71,0,0,1-1.51.51,3.78,3.78,0,0,0-.95.29c-0.47.19-1,.29-1.51,0.5s-1,.5-1.48.69a0.62,0.62,0,0,1-.5,0c-0.37-.33-0.44-0.21-0.79.06a8.5,8.5,0,0,1-2.17.73,1,1,0,0,1-.56-0.28l-0.39.08c-0.7,2.08-1.87,1.26-3,1.27a2.74,2.74,0,0,0-1,.54,7.49,7.49,0,0,1-1.46.76,5.36,5.36,0,0,1-1.1.55c-0.55.31-1.08,0.13-1.49,0.61a7.72,7.72,0,0,1-1.51.51c-0.47.19-1,.31-1.51,0.5a10.21,10.21,0,0,1-2.23.94c-1.11.52-2.25,0.84-3.36,1.36-0.9.57-1.92,0.48-2.91,1.07-1.26.75-2.82,1.05-4.16,1.91a17.12,17.12,0,0,1-2.25.84c-0.39.08-.8,0.56-1.38,0.67-0.78.15-1.38,0.67-2.16,0.82a8.29,8.29,0,0,0-1.38.67c-0.93.38-1.77,0.75-2.72,1a26.23,26.23,0,0,0-2.8,1.15,49.68,49.68,0,0,1-5.1,1.7C275.48,132.3,275.27,132.24,275.08,132.28Zm2.81-10.84a0.33,0.33,0,0,1,.14-0.33l0.48-.09c0.1,0,.16-0.23.25-0.25s-0.12-.08-0.21-0.06l-0.35-.23a1.1,1.1,0,0,0-.64-0.18c-0.25.25,0.35,0.23,0.31,0.54a1,1,0,0,1,.15.27,1.94,1.94,0,0,0-.76.25,0.36,0.36,0,0,0-.27.15,2.59,2.59,0,0,0,.68.37C277.88,121.94,277.83,121.65,277.89,121.44Zm0-2.19a4.82,4.82,0,0,0,.16-0.73,4.5,4.5,0,0,0-.74.34c0,0.1-.17.13-0.37,0.17l-0.1,0a2.7,2.7,0,0,0,.48.41C277.55,119.71,277.84,119.66,277.86,119.25Zm0.73,0.16a0.52,0.52,0,0,0-.25-0.25c-0.08.12-.16,0.23,0,0.31s0.06,0.29.15,0.27a1.08,1.08,0,0,0,.6,0A1.37,1.37,0,0,0,278.6,119.41Zm2.35-4-0.23-.15a0.34,0.34,0,0,0-.06.21l0.12,0.08C280.86,115.57,280.85,115.47,280.94,115.45Zm1.27-1.25a2.89,2.89,0,0,0,0-1,0.37,0.37,0,0,0-.33-0.14c-0.12-.08-0.18.14-0.25,0.25l0.15,0.77s-0.1,0-.06.21l0.35,0.23C282.05,114.44,282.23,114.3,282.21,114.21Zm1.1-2.11a1,1,0,0,0-.52-0.1,1,1,0,0,0-.33.36c0.1,0,.31,0,0.41,0A1.68,1.68,0,0,0,283.31,112.09ZM283.8,111a0.21,0.21,0,0,0-.23-0.15,0.43,0.43,0,0,0-.49.59,1,1,0,0,0,.31,0C283.46,111.36,283.87,111.38,283.8,111Zm0.8-1.06a1.51,1.51,0,0,0-.66-0.27c0,0.1,0,.31,0,0.4a1,1,0,0,0,.15.27A1.68,1.68,0,0,0,284.6,109.94Zm1.43,3.71a0.52,0.52,0,0,0-.33-0.14l-0.16.23a0.35,0.35,0,0,0,.21.06C285.78,113.91,285.85,113.79,286,113.66Zm6.22,7.57a1.39,1.39,0,0,1-.33-0.14c-0.31,0-.25.25-0.31,0.46a0.34,0.34,0,0,0,.14.17A1,1,0,0,0,292.25,121.23Zm2-.5a1.44,1.44,0,0,0-.43-0.12,0.38,0.38,0,0,0-.16.23l0.23,0.15A1.44,1.44,0,0,0,294.26,120.73Zm2.14-.92c0.1,0,.06-0.21.06-0.21l-0.1,0a6.59,6.59,0,0,0-.72.44l-0.08.12c0,0.1.14,0.17,0.12,0.08A6.72,6.72,0,0,0,296.4,119.81Zm3-.78a0.52,0.52,0,0,0-.08-0.38c-0.22.44-.35-0.23-0.6,0a3,3,0,0,0-.7.54l-0.08.11a0.37,0.37,0,0,0,.23.15,1.33,1.33,0,0,1,.5,0A1.88,1.88,0,0,1,299.37,119Zm3.46-1.38,0.08-.12-0.12-.08a5.68,5.68,0,0,1-1.24.34l-0.29.06a0.52,0.52,0,0,0,.25.25c0.12,0.08.2,0,.21,0.06Zm2.83-1a0.6,0.6,0,0,0,.37-0.17,0.3,0.3,0,0,0-.14-0.17,0.73,0.73,0,0,1-.14.33c-0.1,0-.08.11-0.17,0.13a0.73,0.73,0,0,1-.17-0.37,0.53,0.53,0,0,0-.39.08c-0.1,0-.08.11-0.17,0.13a1.44,1.44,0,0,1,.43.12c0.1,0,.21.06,0.31,0Zm1.53-.4a1.48,1.48,0,0,0,.35-0.27c0.1,0,.06-0.21.16-0.23-0.1,0-.21-0.06-0.31,0a0.48,0.48,0,0,1-.37.17,3.12,3.12,0,0,0-.51.5Z"/><path class="cls-5" d="M350.16,115.57s0-.18-0.13-0.16a0.54,0.54,0,0,0-.34.16,0.08,0.08,0,0,0-.07.11l-0.05-.27a0.33,0.33,0,0,0-.32-0.13,0.73,0.73,0,0,1-.56-0.17c-0.15-.25-0.39-0.4-0.63-0.16a1,1,0,0,1-.47-0.38,0.47,0.47,0,0,1,.12-0.31,1.2,1.2,0,0,1,.53-0.21c0.09,0,0-.21.14-0.23l-0.09,0-0.55.12a1.1,1.1,0,0,0-1,.26c-0.07.11,0.77,0-1,.35l-0.05-.27c1.7-.81.31-0.53,0-0.48-0.48,0,0-.28,0-0.48,0.32-.35.33-0.35-0.09-0.55a0.42,0.42,0,0,0-.27,0l0-.18,0.34-.16a0.4,0.4,0,0,0-.2-0.25,0.36,0.36,0,0,1-.11-0.17c0.22-.33-0.15-0.35-0.28-0.51a0.69,0.69,0,0,0-.24.24,1.35,1.35,0,0,1,0,.56,0.49,0.49,0,0,1-.24.24c0-.09-0.13-0.16-0.15-0.25s0-.38.08-0.58,0.32-.35,0-0.66a1.29,1.29,0,0,0,.06-0.48,1.33,1.33,0,0,0,.19-0.79l0-.18c0-.18-0.11-0.26.07-0.3s0.07-.2.07-0.2a2.85,2.85,0,0,1-.24-1.75,0.35,0.35,0,0,0,0-.29c0-.18-0.07-0.36.34-0.25l-0.35-.12a1.75,1.75,0,0,0-.56-0.27l-0.18-.91c-0.09-.46.44-0.84,0.36-1.3a12.65,12.65,0,0,1,.21-2.41,0.49,0.49,0,0,0,.12-0.4c-0.09,0-.33,0-0.43,0-0.63.22-1.13,0.41-1.67,0.61a1.14,1.14,0,0,0-.52.2c-0.28.05-.51,0.29-0.69,0.32a2.59,2.59,0,0,1-.84.07,1.39,1.39,0,0,0-1.16.42,4.25,4.25,0,0,0-1.42.56,15.5,15.5,0,0,1-1.82.92,4.19,4.19,0,0,1-1.32.54,0.58,0.58,0,0,1-.32.35,3.9,3.9,0,0,0-1.65.8,1.79,1.79,0,0,1-1.21.14c-0.37.07-.55,0.11-0.55,0.58l-0.06.2a1.54,1.54,0,0,0-.78.91c-0.41.84-1,1.71-1.41,2.55-0.37,1-.85,2-1.32,3a4.89,4.89,0,0,1-2.51,2.76,5.62,5.62,0,0,1-2.13.32,1.34,1.34,0,0,0-.31-0.13l-1.32-.88a0.63,0.63,0,0,1-.35-0.31,5.25,5.25,0,0,0-.49-0.57,3.37,3.37,0,0,1-1.24-1.93,3.11,3.11,0,0,1-.09-0.93,2.61,2.61,0,0,1,.26-1.56,8.55,8.55,0,0,1,1.7-3,12.56,12.56,0,0,0,.89-1.31,1.28,1.28,0,0,1,.31-0.34,1,1,0,0,0,.28-1,0.8,0.8,0,0,0-.88-0.58,0.49,0.49,0,0,0-.4-0.11,2,2,0,0,0,.39-0.45,2.14,2.14,0,0,1,.38,0,0.47,0.47,0,0,0,.29,0c0-.47.42-0.27,0.68-0.42a2.92,2.92,0,0,0,.83-0.63,12.26,12.26,0,0,0,2.1-3.91c0.41-.84.82-1.67,1.21-2.6,0.43-.75.74-1.56,1.15-2.4s0.85-1.49,1.17-2.31c0.28-.53.54-1.15,0.82-1.67,0.43-.74.8-1.29,1.13-2L332.16,86a4.6,4.6,0,0,0,.78-1.1c0.17-.6,1.11-1.35,1-1.81l-0.11-.55c-0.05-.27-0.21-0.43.06-0.48a0.92,0.92,0,0,0,.43-1.12,0.38,0.38,0,0,1,.08-0.3,10.77,10.77,0,0,0,.77-1.29c0.3-.44.49-0.85,0.78-1.29a1.89,1.89,0,0,1,.58-0.87c0.33-.25.53-0.67,0.86-0.93a2.42,2.42,0,0,1,1.08-.4,0.49,0.49,0,0,0-.29.44l0,0.09a0.7,0.7,0,0,0,.56,0c0-.09-0.13-0.16,0-0.18-0.55.11-.18-0.15-0.29-0.23s0-.09-0.13-0.07l0.14-.22c0.68,0.06,1.1-.69,1.76-0.72,0.09,0,.24-0.24.33-0.25a6.13,6.13,0,0,1,.39-0.91c0.24-.24.72,0.78,0.56-1l0.37-.07,0.83-.16,0.46-.09,0.28-.05,0.18,0c0.53,1.74.49,0.54,0.65,0.42a0.92,0.92,0,0,1,.85.44,0.42,0.42,0,0,0,.59.09c0,0.09.54,0.14,0.55,0.23,0,0.38-1,1,.86.83l0,0.18a0.84,0.84,0,0,1-.25.33c0.37-.07.39,0.11,0.53,0.37a1.36,1.36,0,0,0,.43.29,0.68,0.68,0,0,1,.22.43c0,0.18-.12.5,0.3,0.22l0.19,0.06c0.16,0.35.41,0.67,0.56,0.93,0.18,0.44.34,0.78,0.5,1.13a0.82,0.82,0,0,1,.18.44,3.87,3.87,0,0,1,.85,1.91,2.19,2.19,0,0,0,.33.69l-0.15.22a0.32,0.32,0,0,1-.06.2c0.51,0.18.31,0.6,0.38,1l-0.12.87a6,6,0,0,0,.34,1.26,1.36,1.36,0,0,1,0,.56,6.24,6.24,0,0,1,.07,1.78,13.69,13.69,0,0,0,.38,1.91l0,0.18c0.18,0.91.25,0.8,1.14,1a6.69,6.69,0,0,1,1.18.43,2.61,2.61,0,0,1,1.68,1.66c0.13,0.16.38,0.4,0.5,0.56l0.72,0.71a0.55,0.55,0,0,1,.13.64,1.82,1.82,0,0,0,0,1,0.58,0.58,0,0,1-.41.84,1.9,1.9,0,0,0-.43.75,0.71,0.71,0,0,1-.63.69c-0.81.25-1.73,0.43-2.54,0.69a1.54,1.54,0,0,0-.64.13,0.64,0.64,0,0,0-.47.85c0.07,0.36,0,.67,0,1l0,0.09c0.07,0.36.11,0.73-.35,0.82a1.27,1.27,0,0,0-.48.57l0.1,0.07c0.22,0.15.22,0.15,0,.27a0.32,0.32,0,0,0-.13.31,4.71,4.71,0,0,0-.15.69,0.09,0.09,0,0,0-.07.11c0.11,0.07.25-.2,0.32-0.31a6.11,6.11,0,0,1,.31-0.88l0.09,0c0.35,1.77.21,1.06,0.19,1.44a1.81,1.81,0,0,0,0,.37c-0.44-.29-0.55.11-0.73,0.15l-0.18,0,0.09,0a0.52,0.52,0,0,1,.16.34,0.2,0.2,0,0,1-.15.21,0.77,0.77,0,0,1-.16.17,1.22,1.22,0,0,0,.2.54,0.64,0.64,0,0,1,.38.5l0.37-.07a0.34,0.34,0,0,1,.15-0.21c-0.07.11-.19,0-0.19,0-0.26.15-.44,0.21-0.69,0.35a0.41,0.41,0,0,1-.17.09,0.23,0.23,0,0,0,.2,0,0.68,0.68,0,0,0,.38,0,3.23,3.23,0,0,1-.57.48c-0.06.2-.06,0.2,0.13,0.16l0.2,0.05c0.07,0.36.16,0.35,0.31,0.13s0.17-.13.18,0a0.34,0.34,0,0,0,.15.25l-0.07.11a2.27,2.27,0,0,1-.09.49c-0.18,0-.29,0-0.57,0a0.09,0.09,0,0,0-.07.11,5.84,5.84,0,0,1,.47.47,4.19,4.19,0,0,1,.43.75c-0.17.13-.21,0.4-0.3,0.42l0.2,0,0-.25,0.09,0.45,0,0.09a0.88,0.88,0,0,1-.48.28,1.22,1.22,0,0,1-.32,0,0.54,0.54,0,0,0,.15.35c0.2,0.06.34,0.31,0.08,0.46s-0.17.13,0,.29a0.64,0.64,0,0,1-.1,1,0.34,0.34,0,0,0,0,.29,0.57,0.57,0,0,1,0,.38c0.15,0.26,1.39.11-.38,0.55l0.05,0.27,0.09,0.46a0.39,0.39,0,0,0,.12.07c-0.22-.15-0.28-0.23-0.53-0.08-0.09,0,.22-0.14.11-0.21l0.22-.14,0,0.18a3.94,3.94,0,0,0,0,1,0.3,0.3,0,0,1-.13.5,0.45,0.45,0,0,0-.21.23,0.57,0.57,0,0,1-.16.32A0.8,0.8,0,0,0,350.16,115.57Zm-22.24-12.28,0.19,0,0.09,0a0.19,0.19,0,0,0,.17-0.13c0.09,0,0-.09,0-0.18a0.34,0.34,0,0,0-.26.14,0.33,0.33,0,0,0-.17.13,0.34,0.34,0,0,0,0,.29A0.19,0.19,0,0,0,327.92,103.28Zm4.54,1.29a0.35,0.35,0,0,1,.31-0.35,1.61,1.61,0,0,0,.63-0.22c-0.25-.33-0.38,0-0.68-0.06l-0.09,0a0.56,0.56,0,0,0-.35.16,0.72,0.72,0,0,0-.24.24,0.41,0.41,0,0,0,.35.31A0.09,0.09,0,0,0,332.46,104.57Zm4-8.72a14.09,14.09,0,0,0,1.3-.64,18.8,18.8,0,0,1,2-.72,1.79,1.79,0,0,1,.52-0.27,24.58,24.58,0,0,0,2.83-1.11c0.33-.25.59-0.39,0.41-0.83a6.39,6.39,0,0,1,0-1.22,2.17,2.17,0,0,0,0-.85,10,10,0,0,1-.32-1.64,0.31,0.31,0,0,0,.13-0.31c-0.44-.29-0.16-0.82-0.23-1.18a15.27,15.27,0,0,1-.46-2.84c-0.09,0-.11-0.07-0.15-0.25-0.07.11-.26,0.14-0.33,0.25-0.67,1-1.4,2.07-2.05,3.14A15.78,15.78,0,0,0,338.67,90a17,17,0,0,0-1.46,2.75c-0.45,1.13-1.15,1.94-1.68,3.09a0.39,0.39,0,0,1-.15.23l0.37-.07A2,2,0,0,0,336.48,95.85Zm2.77,2.94a2.1,2.1,0,0,0-1.34,0c-0.17.13-.42,0.27-0.59,0.4,0-.09-0.11-0.07-0.13-0.16a0.49,0.49,0,0,1-.33.25,0.74,0.74,0,0,0,.42.2,0.82,0.82,0,0,0,.63-0.22c0.09,0,.15-0.22.24-0.24s-0.06.2,0,.29,0,0.09.11,0.07a0.5,0.5,0,0,0,.9.2A1,1,0,0,0,339.25,98.79Zm6.39,11.7a0.71,0.71,0,0,0-.38,0l-0.28.05a1.29,1.29,0,0,1-.11.4l0.18,0,0.28-.05A3.83,3.83,0,0,0,345.64,110.5Zm1.51,2.83c-0.13-.16-0.35-0.31-0.47-0.47l-0.09,0a1.81,1.81,0,0,0,.23.71A0.49,0.49,0,0,0,347.15,113.32Zm-0.7-6.48a0.39,0.39,0,0,1-.42-0.2,0.79,0.79,0,0,0-.22.33,0.72,0.72,0,0,0,.35.31A0.72,0.72,0,0,1,346.45,106.84Zm-2.24-16.77a1.43,1.43,0,0,0,.11-0.4,0.92,0.92,0,0,0-.15-0.25l-0.18,0-0.17.6c0,0.09.22,0.15,0.24,0.24A0.35,0.35,0,0,0,344.21,90.07Zm0-2.55a2.71,2.71,0,0,0,0-.95c0-.09-0.11-0.07-0.31-0.13a0.92,0.92,0,0,0,0,.29l0.09,0c-0.06.2,0,.47-0.06,0.67a0.34,0.34,0,0,0,.14.26C344.11,87.63,344.2,87.61,344.19,87.52Zm0-1.51c0.15-.22.13-0.31,0.28-0.53,0-.09.07-0.11,0.06-0.2l-0.09,0c-0.11-.07-0.2-0.06-0.18,0a2.22,2.22,0,0,0-.37.54,0.93,0.93,0,0,0,.15.26A0.29,0.29,0,0,0,344.18,86Z"/><path d="M357.93,121.44c-8.27,0-160.11,32.15-161.64,38.27L214.12,173l-0.89-.43A78.49,78.49,0,0,1,197,162.31a122.79,122.79,0,0,0-12.73-9.43c-5.33-3.27-9.77-1.44-14.06,2.85s-4.59,9.49-3.37,12.25S199,194.3,207.31,199.2s20.82,4.59,26.33,3.06,126.74-72.86,128.58-74.7S366.2,121.44,357.93,121.44Z"/><rect y="115.02" width="126.58" height="8.81"/><rect x="379.91" y="115.02" width="138.75" height="8.81"/><path d="M103.09,134.86v2.25H96.86v3.73h6v2.25h-6v5.16h6.24v2.25H94.47V134.86h8.63Z"/><path d="M113,137.21l-1.92,1.13a2.73,2.73,0,0,0-.7-1,2.62,2.62,0,0,0-1.69-.56,2.29,2.29,0,0,0-1.63.54,1.76,1.76,0,0,0-.57,1.34q0,1.22,1.69,1.9l1.57,0.63q3.68,1.5,3.68,4.59a4.86,4.86,0,0,1-1.42,3.62,5,5,0,0,1-3.62,1.4,4.71,4.71,0,0,1-3.68-1.57,5.18,5.18,0,0,1-1.31-3l2.37-.52a3.21,3.21,0,0,0,.66,2,2.47,2.47,0,0,0,2,.94,2.52,2.52,0,0,0,1.84-.73A2.54,2.54,0,0,0,111,146a2.18,2.18,0,0,0-.62-1.66,5.37,5.37,0,0,0-1.63-1l-1.5-.63q-3.19-1.34-3.19-4a4,4,0,0,1,1.23-2.91,4.54,4.54,0,0,1,3.34-1.22,4.69,4.69,0,0,1,3.14,1.05A5.45,5.45,0,0,1,113,137.21Z"/><path d="M123.86,137.11h-3.59V150.5h-2.39V137.11H114.3v-2.25h9.57v2.25Z"/><path d="M124.18,150.37a1.41,1.41,0,1,1,1,.41A1.36,1.36,0,0,1,124.18,150.37Z"/><path d="M389.79,148v2.12h-9.88l5.1-6.3q1.15-1.42,1.76-2.34a4,4,0,0,0,.77-2.16,2.48,2.48,0,0,0-.64-1.72,2.62,2.62,0,0,0-3.66.08,3.14,3.14,0,0,0-.75,1.94h-2.16a5.16,5.16,0,0,1,1.24-3.29,4.34,4.34,0,0,1,3.44-1.46,4.57,4.57,0,0,1,3.49,1.33,4.48,4.48,0,0,1,1.26,3.2,5.69,5.69,0,0,1-1.06,3.15,33.11,33.11,0,0,1-2.1,2.7L384.3,148h5.49Z"/><path d="M395.3,150.33a4.25,4.25,0,0,1-3.33-1.62,11,11,0,0,1,0-12.26,4.23,4.23,0,0,1,6.66,0,11,11,0,0,1,0,12.26A4.25,4.25,0,0,1,395.3,150.33Zm0-13.48a2.32,2.32,0,0,0-2,1.24,8.13,8.13,0,0,0-1,4.48,8.32,8.32,0,0,0,1,4.5,2.21,2.21,0,0,0,4,0,8.32,8.32,0,0,0,1-4.5,8.14,8.14,0,0,0-1-4.48A2.32,2.32,0,0,0,395.3,136.85Z"/><path d="M402.67,150.08V137.19h-2.56l1.24-2.11h3.57v15h-2.25Z"/><path d="M409,150.6l-1.63-1.24,3.51-4.88a3.4,3.4,0,0,1-.68.07,4.49,4.49,0,0,1-3.11-1.27,4.45,4.45,0,0,1-1.39-3.45,5,5,0,0,1,1.35-3.57,4.65,4.65,0,0,1,3.55-1.43,4.72,4.72,0,0,1,3.67,1.44,4.88,4.88,0,0,1,1.31,3.4,6.7,6.7,0,0,1-1.46,3.8Zm1.68-8a2.56,2.56,0,0,0,1.92-.8,3.1,3.1,0,0,0,0-4.11,2.76,2.76,0,0,0-3.9,0,3.07,3.07,0,0,0,0,4.1A2.66,2.66,0,0,0,410.7,142.57Z"/></svg>