<?xml version="1.0" encoding="UTF-8" standalone="no"?>
<!-- Created with Inkscape (http://www.inkscape.org/) -->

<svg
   xmlns:dc="http://purl.org/dc/elements/1.1/"
   xmlns:cc="http://creativecommons.org/ns#"
   xmlns:rdf="http://www.w3.org/1999/02/22-rdf-syntax-ns#"
   xmlns:svg="http://www.w3.org/2000/svg"
   xmlns="http://www.w3.org/2000/svg"
   xmlns:sodipodi="http://sodipodi.sourceforge.net/DTD/sodipodi-0.dtd"
   xmlns:inkscape="http://www.inkscape.org/namespaces/inkscape"
   version="1.1"
   id="svg70"
   width="132.26666"
   height="132.26666"
   viewBox="0 0 132.26667 132.26667"
   sodipodi:docname="3.svg"
   inkscape:version="0.92.2 (5c3e80d, 2017-08-06)">
  <metadata
     id="metadata76">
    <rdf:RDF>
      <cc:Work
         rdf:about="">
        <dc:format>image/svg+xml</dc:format>
        <dc:type
           rdf:resource="http://purl.org/dc/dcmitype/StillImage" />
        <dc:title></dc:title>
      </cc:Work>
    </rdf:RDF>
  </metadata>
  <defs
     id="defs74" />
  <sodipodi:namedview
     pagecolor="#ffffff"
     bordercolor="#666666"
     borderopacity="1"
     objecttolerance="10"
     gridtolerance="10"
     guidetolerance="10"
     inkscape:pageopacity="0"
     inkscape:pageshadow="2"
     inkscape:window-width="1920"
     inkscape:window-height="1000"
     id="namedview72"
     showgrid="false"
     fit-margin-top="0"
     fit-margin-left="0"
     fit-margin-right="0"
     fit-margin-bottom="0"
     inkscape:zoom="2.8454592"
     inkscape:cx="-176.3235"
     inkscape:cy="57.271734"
     inkscape:window-x="-11"
     inkscape:window-y="-11"
     inkscape:window-maximized="1"
     inkscape:current-layer="svg70" />
  <path
     style="fill:#939393;stroke-width:0.26666665"
     d="m 50.66667,125.88841 v -6.37826 l -1.8,-0.59398 c -2.28002,-0.75239 -6.96092,-2.73765 -8.11746,-3.44277 -0.4854,-0.29594 -1.06391,-0.53852 -1.28558,-0.53907 -0.22166,-5.3e-4 -2.38071,1.97941 -4.79788,4.39992 L 30.2709,123.73516 19.40294,112.86962 8.53497,102.00408 12.93415,97.599177 c 2.41955,-2.4227 4.39873,-4.58361 4.39819,-4.80204 -5.6e-4,-0.21843 -0.24313,-0.79429 -0.53907,-1.27969 -0.70513,-1.156539 -2.69038,-5.837434 -3.44277,-8.11745 l -0.59398,-1.8 H 6.37826 0 V 66.133331 50.666665 h 6.37826 6.37826 l 0.59398,-1.8 c 0.75239,-2.280016 2.73764,-6.960915 3.44277,-8.117453 0.29594,-0.4854 0.53852,-1.06391 0.53907,-1.285579 5.6e-4,-0.221667 -1.97942,-2.380712 -4.39992,-4.79788 L 8.53151,30.270903 19.39705,19.402937 30.26259,8.5349705 l 4.4049,4.3991805 c 2.42269,2.41955 4.58361,4.398733 4.80203,4.398184 0.21843,-5.6e-4 0.79429,-0.243129 1.27969,-0.53907 1.15654,-0.705122 5.83744,-2.69038 8.11746,-3.442765 l 1.8,-0.593984 V 6.3782575 0 H 66.13333 81.6 v 6.3782575 6.3782585 l 1.8,0.593984 c 2.28001,0.752385 6.96091,2.737643 8.11745,3.442765 0.4854,0.295941 1.06391,0.538522 1.28558,0.53907 0.22167,5.6e-4 2.38071,-1.979414 4.79788,-4.399916 l 4.39485,-4.4009145 10.86797,10.8655425 10.86797,10.865541 -4.39918,4.404898 c -2.41955,2.422694 -4.39874,4.583611 -4.39819,4.802038 5.3e-4,0.218426 0.24313,0.794288 0.53907,1.279688 0.70512,1.156538 2.69038,5.837437 3.44277,8.117453 l 0.59398,1.8 h 6.37826 6.37826 v 15.466666 15.466666 h -6.37826 -6.37826 l -0.59398,1.8 c -0.75239,2.280016 -2.73765,6.960911 -3.44277,8.11745 -0.29594,0.4854 -0.53852,1.06391 -0.53907,1.28558 -5.3e-4,0.22167 1.97941,2.38071 4.39992,4.79788 l 4.40091,4.394853 -10.86554,10.86797 -10.86554,10.86797 -4.4049,-4.39918 c -2.4227,-2.41955 -4.58361,-4.39874 -4.80204,-4.39819 -0.21843,5.3e-4 -0.79429,0.24313 -1.27969,0.53907 -1.15654,0.70512 -5.83744,2.69038 -8.11745,3.44277 l -1.8,0.59398 v 6.37826 6.37826 H 66.13333 50.66667 Z m 26.66666,-3.84657 v -5.95817 l 2.2,-0.59945 c 4.32528,-1.17854 9.95046,-3.55913 13.0836,-5.53699 l 1.05694,-0.66722 4.23045,4.22425 4.23045,4.22425 7.86528,-7.86189 7.86528,-7.86189 -4.19265,-4.198814 -4.19266,-4.19881 1.00894,-1.80356 c 2.29225,-4.097537 4.8167,-10.412699 5.38464,-13.470216 l 0.18576,-1 H 122.02968 128 v -11.2 -11.2 h -5.98871 -5.98871 l -0.55426,-1.933333 c -1.37603,-4.799744 -3.63285,-10.175968 -5.66387,-13.49252 l -0.54657,-0.892517 4.23588,-4.242099 4.23589,-4.242098 -7.93021,-7.930205 -7.9302,-7.930206 -4.20277,4.196607 -4.20277,4.196606 -3.86518,-1.946062 C 85.61586,18.712298 83.34034,17.815767 79.53333,16.751938 l -2.2,-0.614768 V 10.201918 4.2666655 h -11.2 -11.2 v 5.9581635 5.958163 l -2.2,0.599454 c -4.32527,1.178545 -9.95046,3.55913 -13.0836,5.536991 l -1.05693,0.667216 -4.23045,-4.22425 -4.23045,-4.22425 -7.86528,7.861892 -7.86528,7.861894 4.19265,4.198808 4.19266,4.198808 -1.00895,1.803554 c -2.29224,4.097542 -4.81669,10.412704 -5.38464,13.470221 l -0.18575,1 H 10.23699 4.26667 v 11.2 11.200001 h 5.96486 5.96486 l 0.45895,1.666666 c 1.23756,4.49412 3.38585,9.693563 5.43582,13.15617 l 0.80289,1.35617 -4.11369,4.10727 c -2.26253,2.259 -4.11369,4.229493 -4.11369,4.378863 0,0.14937 3.53967,3.80974 7.86595,8.13415 l 7.86595,7.86256 4.20219,-4.19604 4.2022,-4.19604 3.86519,1.94606 c 3.98265,2.00521 6.25818,2.90174 10.06518,3.96557 l 2.2,0.61476 V 122.06475 128 h 11.2 11.2 z m -16,-22.171584 c -7.64624,-1.14009 -13.70991,-4.2053 -19.22077,-9.716159 -5.66811,-5.668106 -8.79098,-12.025669 -9.8224,-19.9965 -0.81962,-6.334067 0.42881,-13.528325 3.3505,-19.307819 3.09502,-6.122351 9.08677,-12.114095 15.20912,-15.209117 5.77949,-2.921696 12.97375,-4.170119 19.30782,-3.350501 7.97083,1.031419 14.32839,4.154288 19.9965,9.8224 5.66811,5.668109 8.79099,12.025672 9.8224,19.996503 0.67731,5.234262 -0.0203,10.934773 -1.97301,16.122677 -3.32037,8.821389 -10.95036,16.451376 -19.77175,19.771746 -5.39227,2.029644 -11.37416,2.690474 -16.89841,1.86677 z m 9.24577,-4.26908 c 2.93507,-0.47603 6.30367,-1.50599 8.48756,-2.59509 7.3274,-3.654159 13.07468,-10.266164 15.43759,-17.760324 1.93009,-6.121416 1.93009,-12.103448 0,-18.224864 -2.81368,-8.923786 -10.3347,-16.44481 -19.25849,-19.25849 -6.12141,-1.930088 -12.10344,-1.930088 -18.22486,0 -8.92379,2.81368 -16.44481,10.334704 -19.25849,19.25849 -1.93009,6.121416 -1.93009,12.103448 0,18.224864 2.81773,8.936637 10.33307,16.444244 19.2875,19.267654 4.57819,1.44354 9.09596,1.80678 13.52919,1.08776 z"
     id="path80"
     inkscape:connector-curvature="0" />
</svg>
