<?xml version="1.0" encoding="UTF-8" standalone="no"?>
<!-- Created with Inkscape (http://www.inkscape.org/) -->

<svg
   xmlns:dc="http://purl.org/dc/elements/1.1/"
   xmlns:cc="http://creativecommons.org/ns#"
   xmlns:rdf="http://www.w3.org/1999/02/22-rdf-syntax-ns#"
   xmlns:svg="http://www.w3.org/2000/svg"
   xmlns="http://www.w3.org/2000/svg"
   xmlns:sodipodi="http://sodipodi.sourceforge.net/DTD/sodipodi-0.dtd"
   xmlns:inkscape="http://www.inkscape.org/namespaces/inkscape"
   version="1.1"
   id="svg90"
   width="471.46075"
   height="471.42752"
   viewBox="0 0 471.46075 471.42752"
   sodipodi:docname="4.svg"
   inkscape:version="0.92.2 (5c3e80d, 2017-08-06)">
  <metadata
     id="metadata96">
    <rdf:RDF>
      <cc:Work
         rdf:about="">
        <dc:format>image/svg+xml</dc:format>
        <dc:type
           rdf:resource="http://purl.org/dc/dcmitype/StillImage" />
        <dc:title></dc:title>
      </cc:Work>
    </rdf:RDF>
  </metadata>
  <defs
     id="defs94" />
  <sodipodi:namedview
     pagecolor="#ffffff"
     bordercolor="#666666"
     borderopacity="1"
     objecttolerance="10"
     gridtolerance="10"
     guidetolerance="10"
     inkscape:pageopacity="0"
     inkscape:pageshadow="2"
     inkscape:window-width="1920"
     inkscape:window-height="1000"
     id="namedview92"
     showgrid="false"
     fit-margin-top="0"
     fit-margin-left="0"
     fit-margin-right="0"
     fit-margin-bottom="0"
     inkscape:zoom="1.5175781"
     inkscape:cx="-191.53539"
     inkscape:cy="282.09857"
     inkscape:window-x="-11"
     inkscape:window-y="-11"
     inkscape:window-maximized="1"
     inkscape:current-layer="svg90" />
  <path
     style="fill:#4b74a2"
     d="m 208.96075,470.34962 c -11.78717,-1.43542 -19.44144,-2.9265 -33.19313,-6.46614 C 93.422699,442.68818 28.276359,377.53933 6.8772493,294.9866 0.86379925,271.78814 -0.04382075,263.86369 0.00156925,234.95506 c 0.0442,-28.1682 0.83266,-35.21912 6.42967005,-57.5 C 18.503619,129.39671 45.893979,85.994676 84.524809,53.710041 111.5266,31.144052 148.25904,13.00654 182.99568,5.0877192 c 19.62082,-4.47290702 26.5843,-5.13522202 53.46507,-5.08520602 27.66667,0.05148 35.11449,0.890785 57,6.42342202 66.261,16.7507198 121.74663,61.2744438 152.69627,122.5291248 17.36891,34.37607 25.30373,67.77267 25.30373,106.5 0,38.6504 -8.13417,72.77418 -25.47778,106.88213 -33.0925,65.07977 -94.16572,111.25575 -165.52222,125.14736 -19.17019,3.73203 -53.18748,5.09513 -71.5,2.86507 z m 145,-142.16698 c 14.54991,-4.12063 18.79335,-11.34583 13.25,-22.56043 -2.43075,-4.91757 -21.52636,-24.78363 -33.35977,-34.70573 -7.98641,-6.69646 -11.39023,-10.99473 -11.39023,-14.38332 0,-3.87979 5.44415,-12.75886 19.94788,-32.53377 26.35095,-35.92784 31.59844,-48.20081 22.87677,-53.50477 -2.69072,-1.63633 -5.75732,-1.81979 -31.15457,-1.86388 -23.74704,-0.0412 -28.54314,0.19325 -30.54606,1.49331 -1.52323,0.9887 -5.58488,8.19041 -11.31669,20.06562 -4.9796,10.31678 -12.38832,23.67198 -16.72242,30.1444 -4.27995,6.39154 -8.50372,13.02011 -9.38616,14.73014 -3.08186,5.97217 -11.75078,7.0144 -13.78743,1.65761 -0.62701,-1.64916 -0.93667,-14.25085 -0.80634,-32.81313 0.19584,-27.89105 0.0695,-30.4221 -1.69669,-33.98015 -4.09556,-8.25085 -9.04953,-9.46033 -36.92806,-9.01578 -17.40594,0.27755 -20.81252,0.60117 -26.44005,2.51176 -8.31486,2.82296 -12.04018,5.47631 -12.04018,8.57558 0,2.86033 2.99016,5.03109 8.25564,5.99333 2.30452,0.42114 4.66416,1.76604 6.10698,3.48073 2.26058,2.68655 2.37924,3.66044 3.07449,25.2332 0.76729,23.80826 0.20352,29.10707 -3.48986,32.80045 -1.07099,1.07099 -2.87419,1.94725 -4.00711,1.94725 -3.91935,0 -12.24759,-9.35735 -18.88961,-21.22379 -3.47141,-6.20191 -8.01887,-13.88335 -10.10546,-17.06986 -2.08659,-3.1865 -5.94318,-11.20298 -8.5702,-17.81439 -2.62702,-6.61142 -5.81505,-13.05942 -7.08452,-14.32889 -3.92869,-3.92868 -10.27964,-5.06372 -28.29035,-5.05602 -17.127571,0.007 -26.139021,1.54568 -28.959071,4.94363 -4.07174,4.90614 -0.68993,18.31347 10.35411,41.04932 9.987081,20.55993 23.335011,39.65996 49.617911,71 19.15846,22.84478 24.63672,27.21876 47.48705,37.91481 l 13,6.08519 18.5,0.2981 c 16.23908,0.26167 18.91905,0.0784 21.92892,-1.5 6.01126,-3.15227 7.06253,-5.60374 7.92694,-18.48493 0.84377,-12.57369 2.18952,-16.11953 6.78029,-17.86493 3.62237,-1.37723 8.70886,1.31393 12.92845,6.84016 1.88947,2.47456 3.4354,4.82843 3.4354,5.23081 0,1.19409 23.80311,22.28423 27.94826,24.76285 2.09904,1.25513 5.78188,2.69788 8.18409,3.20611 6.37418,1.34855 37.33224,0.44868 43.36765,-1.26059 z"
     id="path100"
     inkscape:connector-curvature="0" />
</svg>
