<?xml version="1.0" encoding="UTF-8" standalone="no"?>
<svg
   xmlns:dc="http://purl.org/dc/elements/1.1/"
   xmlns:cc="http://creativecommons.org/ns#"
   xmlns:rdf="http://www.w3.org/1999/02/22-rdf-syntax-ns#"
   xmlns:svg="http://www.w3.org/2000/svg"
   xmlns="http://www.w3.org/2000/svg"
   viewBox="0 0 250.94508 251.3092"
   height="251.3092"
   width="250.94508"
   id="svg1394"
   version="1.1">
  <metadata
     id="metadata1400">
    <rdf:RDF>
      <cc:Work
         rdf:about="">
        <dc:format>image/svg+xml</dc:format>
        <dc:type
           rdf:resource="http://purl.org/dc/dcmitype/StillImage" />
        <dc:title></dc:title>
      </cc:Work>
    </rdf:RDF>
  </metadata>
  <defs
     id="defs1398" />
  <path
     id="path1404"
     d="M 111.0554,250.93467 C 94.40845,248.40089 79.52257,243.77351 67.70861,237.46002 33.59659,219.23022 11.15163,189.93491 2.27481,152.0554 c -3.03308,-12.94286 -3.03308,-40.05714 0,-53.000004 C 13.8671,49.5883 49.5883,13.867104 99.0554,2.2748069 c 12.94286,-3.03307588 40.05714,-3.03307588 53,0 49.4671,11.5922971 85.1883,47.3134931 96.78059,96.7805891 1.72226,7.349264 2.1091,12.209774 2.1091,26.500004 0,14.29023 -0.38684,19.15074 -2.1091,26.5 -11.54111,49.24871 -47.55721,85.39579 -96.28059,96.63074 -8.30618,1.9153 -34.4005,3.32912 -41.5,2.24853 z m -3.5,-55.43093 c 13.36462,-2.13126 24.75229,-9.65484 29.59484,-19.55266 2.38202,-4.86868 2.60881,-6.27044 2.21009,-13.66054 -0.54586,-10.1172 -2.565,-14.70183 -9.1321,-20.73514 -12.15184,-11.16411 -14.67283,-13.82949 -14.67283,-15.51322 0,-0.98942 3.09184,-4.7662 6.87075,-8.39286 9.17542,-8.80574 11.49426,-13.43428 11.56975,-23.093924 0.0477,-6.107702 -0.43433,-8.551681 -2.5968,-13.165214 l -2.65542,-5.665219 2.22881,-0.559397 c 1.22585,-0.307669 4.35948,-2.186282 6.96363,-4.174697 3.47326,-2.65203 4.65281,-4.190838 4.42705,-5.775384 -0.30618,-2.148926 -0.43949,-2.160084 -25.80777,-2.160084 h -25.5 l -6.67961,3.164521 c -8.54444,4.047999 -15.05615,10.074096 -18.5065,17.126351 -7.79237,15.927023 1.48066,35.667757 19.34676,41.186037 3.60251,1.1127 7.29012,2.02309 8.19469,2.02309 1.23144,0 1.64804,0.94218 1.65809,3.75 0.007,2.0625 0.37521,4.7625 0.81739,6 0.73113,2.04619 0.49984,2.25 -2.55333,2.25 -4.49308,0 -14.23129,2.58334 -19.77749,5.24655 -6.38555,3.06626 -13.89555,10.40299 -16.63728,16.25345 -7.22449,15.41598 3.22594,29.99612 24.63728,34.37324 11.32401,2.31496 16.80413,2.54156 26,1.0751 z M 88.44047,182.17578 c -8.91634,-3.18635 -14.74733,-11.19369 -13.40136,-18.40326 1.63176,-8.74039 14.31503,-15.84498 26.86069,-15.04613 5.36197,0.34142 7.04805,0.97656 12.21606,4.60171 3.29753,2.31309 6.77042,5.51743 7.71753,7.12075 4.86336,8.23302 -0.91986,19.03681 -11.77799,22.00277 -5.37597,1.46848 -17.15443,1.31817 -21.61493,-0.27584 z m 8.54419,-67.48971 C 88.79464,110.919 83.55224,101.32927 83.55914,90.127262 c 0.0117,-18.940188 18.24756,-21.01977 27.45214,-3.130583 5.01689,9.750367 3.69527,22.828271 -2.72669,26.981581 -3.82958,2.47672 -7.01969,2.67654 -11.29993,0.70781 z m 78.63648,39.83415 c 1.74689,-0.93491 1.93426,-2.1942 1.93426,-13 V 129.5554 h 11.8 c 7.84444,0 12.20226,-0.40226 13,-1.2 0.66,-0.66 1.2,-3.045 1.2,-5.3 0,-2.255 -0.54,-4.64 -1.2,-5.3 -0.79739,-0.79739 -5.14872,-1.2 -12.96922,-1.2 h -11.76922 l -0.28078,-12.25 -0.28078,-12.250004 h -5.5 -5.5 l -0.28078,12.250004 -0.28078,12.25 h -11.76922 c -7.8205,0 -12.17183,0.40261 -12.96922,1.2 -0.66,0.66 -1.2,3.045 -1.2,5.3 0,2.255 0.54,4.64 1.2,5.3 0.79774,0.79774 5.15556,1.2 13,1.2 h 11.8 v 12.42668 c 0,10.99404 0.20175,12.47939 1.75,12.88399 3.19145,0.83402 6.35715,0.70235 8.31574,-0.34585 z"
     style="fill:#010101" />
</svg>
