<?xml version="1.0" encoding="UTF-8" standalone="no"?>
<!-- Created with Inkscape (http://www.inkscape.org/) -->

<svg
   xmlns:dc="http://purl.org/dc/elements/1.1/"
   xmlns:cc="http://creativecommons.org/ns#"
   xmlns:rdf="http://www.w3.org/1999/02/22-rdf-syntax-ns#"
   xmlns:svg="http://www.w3.org/2000/svg"
   xmlns="http://www.w3.org/2000/svg"
   xmlns:sodipodi="http://sodipodi.sourceforge.net/DTD/sodipodi-0.dtd"
   xmlns:inkscape="http://www.inkscape.org/namespaces/inkscape"
   version="1.1"
   id="svg10"
   width="544"
   height="543.82269"
   viewBox="0 0 544 543.82269"
   sodipodi:docname="6.svg"
   inkscape:version="0.92.2 (5c3e80d, 2017-08-06)">
  <metadata
     id="metadata16">
    <rdf:RDF>
      <cc:Work
         rdf:about="">
        <dc:format>image/svg+xml</dc:format>
        <dc:type
           rdf:resource="http://purl.org/dc/dcmitype/StillImage" />
        <dc:title></dc:title>
      </cc:Work>
    </rdf:RDF>
  </metadata>
  <defs
     id="defs14" />
  <sodipodi:namedview
     pagecolor="#ffffff"
     bordercolor="#666666"
     borderopacity="1"
     objecttolerance="10"
     gridtolerance="10"
     guidetolerance="10"
     inkscape:pageopacity="0"
     inkscape:pageshadow="2"
     inkscape:window-width="1920"
     inkscape:window-height="1000"
     id="namedview12"
     showgrid="false"
     fit-margin-top="0"
     fit-margin-left="0"
     fit-margin-right="0"
     fit-margin-bottom="0"
     inkscape:zoom="1.3278808"
     inkscape:cx="-120.35448"
     inkscape:cy="271.82268"
     inkscape:window-x="-11"
     inkscape:window-y="-11"
     inkscape:window-maximized="1"
     inkscape:current-layer="svg10" />
  <path
     style="fill:#3e64a5;stroke-width:1.14285719"
     d="M 238.85715,542.26932 C 188.19586,536.00923 140.12908,515.51711 100,483.07089 88.12006,473.4654 65.19978,449.919 56.35649,438.23517 18.82911,388.65364 0,333.11329 0,272.00001 0,208.6404 20.98397,149.40369 60.92914,100 70.53463,88.120061 94.08102,65.199775 105.76485,56.356491 155.34638,18.829104 210.88673,0 272.00001,0 333.11329,0 388.65364,18.829104 438.23517,56.356491 449.919,65.199775 473.4654,88.120061 483.07089,100 c 39.94516,49.40369 60.92913,108.6404 60.92913,172.00001 0,61.11328 -18.8291,116.65363 -56.35649,166.23516 -8.84328,11.68383 -31.76357,35.23023 -43.64351,44.83572 -40.68022,32.89184 -88.2762,53.02566 -139.993,59.21914 -17.1341,2.05194 -48.45702,2.04199 -65.14987,-0.0207 z m 56,-192.53035 v -71.97531 l 21.98671,-0.3104 21.98672,-0.31039 0.83158,-5.71429 c 0.45736,-3.14286 1.63068,-13.17143 2.60735,-22.28571 0.97669,-9.11429 1.9904,-18.24286 2.25272,-20.28572 l 0.47694,-3.71428 h -24.49958 -24.49958 v -18.96653 c 0,-28.28772 -0.0714,-28.21511 28.57143,-29.03348 l 20,-0.57143 0.3064,-27.14285 0.3064,-27.14286 -30.59211,0.0199 c -22.43883,0.0145 -32.69758,0.46589 -38.49205,1.69344 -22.74696,4.81893 -38.50536,19.56101 -43.48318,40.67881 -1.27669,5.4162 -1.73037,14.23885 -1.74286,33.89363 l -0.0169,26.57139 h -16 -16 v 26.28571 26.28572 h 16 16 v 72 72 h 32 32 z"
     id="path20"
     inkscape:connector-curvature="0" />
</svg>
