<?xml version="1.0" encoding="utf-8"?>
<!-- Generator: Adobe Illustrator 19.2.0, SVG Export Plug-In . SVG Version: 6.00 Build 0)  -->
<svg version="1.1" id="Capa_1" xmlns="http://www.w3.org/2000/svg" xmlns:xlink="http://www.w3.org/1999/xlink" x="0px" y="0px"
	 viewBox="0 0 512 512" style="enable-background:new 0 0 512 512;" xml:space="preserve">
<style type="text/css">
	.st0{fill:url(#SVGID_1_);}
	.st1{fill:url(#SVGID_2_);}
	.st2{fill:url(#SVGID_3_);}
	.st3{fill:url(#SVGID_4_);}
	.st4{fill:url(#SVGID_5_);}
	.st5{fill:url(#SVGID_6_);}
	.st6{fill:url(#SVGID_7_);}
	.st7{fill:url(#SVGID_8_);}
	.st8{fill:url(#SVGID_9_);}
	.st9{fill:url(#SVGID_10_);}
	.st10{fill:url(#SVGID_11_);}
	.st11{fill:url(#SVGID_12_);}
	.st12{fill:url(#SVGID_13_);}
	.st13{fill:url(#SVGID_14_);}
	.st14{fill:url(#SVGID_15_);}
</style>
<g>
	<g>
		<linearGradient id="SVGID_1_" gradientUnits="userSpaceOnUse" x1="259.2089" y1="248.4592" x2="499.3149" y2="8.3531">
			<stop  offset="0" style="stop-color:#F43F2A"/>
			<stop  offset="1" style="stop-color:#E8744F"/>
		</linearGradient>
		<path class="st0" d="M476.9,0H221.6c-11.2,0-21.2,5.2-27.4,13.8c-22.4,5.7-37,15-43.3,27.5c-4.4,8.9-3.9,19.5-1.1,24.7
			c11.3,20.5,27.3,14.1,35.2,28.5c8.2,14.8-6.2,24.2,5.3,45c11.3,20.5,27.3,14.1,35.2,28.5c8.1,14.8-6.2,24.2,5.3,45
			c11.6,21,24.4,14.1,35.1,28.4c11.4,15.1,3,22.3,26.1,37.6c13,8.6,34.7,2.5,45.2,9.4c9.1,6.1,12.5,28.8,26.3,37.9
			c14.7,9.8,37.2,4.2,45.1,9.5c3.4,2.2,6.4,5.1,9.2,8.4c23.9,29.1,70.2,13,71.4-23.5c13.6-5.4,21.5-17.8,21.5-31.7V34.1
			C510.9,15.3,495.7,0,476.9,0z M429.7,334.9c-3.7-4.5-7.9-8.3-12.5-11.4c-13-8.6-34.7-2.6-45.2-9.5c-9.3-6.2-12.4-28.7-26.3-37.9
			c-14.6-9.7-37.3-4.2-45.2-9.4c-18.2-12-8.5-15.7-22.4-34.1c-13.8-18.4-25.7-11.6-34-26.6c-8.1-14.8,6.2-24.2-5.3-45
			c-11.3-20.5-27.3-14.1-35.2-28.5c-8.1-14.8,6.2-24.2-5.3-45c-11.3-20.6-26.9-14-35-28.1c-0.3-1-1.6-5.6,1.1-11.1
			c2.4-4.9,8.5-11.3,23.2-16.6c-0.8,9.7,2.7,19.3,9.9,26.6l34,34l13.3,69.8c1.2,6.1,4.9,11.4,10.3,14.6l75.5,44.1
			c9.2,47.9,54.7,81.3,103.8,74.4l18.4,18.4c6,6,13.4,9.3,21.3,9.9C471.3,343.7,444.2,352.5,429.7,334.9z M344.1,204.6l15.3,15.3
			l13.8,13.8l47,47c-32.1-0.6-59.5-20.8-70.7-49.1c-2.6-6.4-4.3-13.3-5-20.4C344.3,209.1,344.1,206.9,344.1,204.6z M495.8,289.3
			c0,16.9-20.4,25.4-32.4,13.4L346.1,185.3l-12.2-12.2l-21.5-21.5c-3.1-3.1-8.2-2.9-11.1,0.4c-1.2,1.4-1.8,3.2-1.8,4.9
			c0,1.9,0.7,3.9,2.2,5.3l28,28c-0.5,3.9-0.8,7.8-0.9,11.8l-66.2-38.7c-1.6-0.9-2.8-2.5-3.1-4.4l-9.1-48l30,30
			c3.1,3.1,8.2,2.9,11.1-0.4c1.2-1.4,1.8-3.2,1.8-4.9c0-1.9-0.7-3.9-2.2-5.3l-45.7-45.7c-12.4-12.4-24.9-24.9-37.3-37.3
			c-6.6-6.6-6.5-15-4.1-20.7c2-4.7,6.4-9.7,13.2-11.2c3.7-0.8-12.3-0.3,259.5-0.5c10.5,0,19,8.5,19,19V289.3z"/>
	</g>
</g>
<g>
	<g>
		<linearGradient id="SVGID_2_" gradientUnits="userSpaceOnUse" x1="429.1687" y1="247.9074" x2="469.8811" y2="207.1951">
			<stop  offset="0" style="stop-color:#F43F2A"/>
			<stop  offset="1" style="stop-color:#E8744F"/>
		</linearGradient>
		<path class="st1" d="M469.9,207.2c-2.9-2.9-7.7-2.9-10.7,0l-30,30c-4.8,4.8-1.3,12.9,5.3,12.9c5.6,0,5-2.9,35.4-32.3
			C472.8,214.9,472.8,210.1,469.9,207.2z"/>
	</g>
</g>
<g>
	<g>
		<linearGradient id="SVGID_3_" gradientUnits="userSpaceOnUse" x1="395.3548" y1="214.0966" x2="480.8422" y2="128.6092">
			<stop  offset="0" style="stop-color:#F43F2A"/>
			<stop  offset="1" style="stop-color:#E8744F"/>
		</linearGradient>
		<path class="st2" d="M480.8,128.6c-2.9-2.9-7.7-2.9-10.7,0l-74.8,74.8c-4.8,4.8-1.3,12.9,5.3,12.9c6,0,2.3-0.3,80.2-77
			C483.7,136.3,483.7,131.5,480.8,128.6z"/>
	</g>
</g>
<g>
	<g>
		<linearGradient id="SVGID_4_" gradientUnits="userSpaceOnUse" x1="361.5123" y1="180.2531" x2="472.9207" y2="68.8447">
			<stop  offset="0" style="stop-color:#F43F2A"/>
			<stop  offset="1" style="stop-color:#E8744F"/>
		</linearGradient>
		<path class="st3" d="M472.9,68.8c-2.9-2.9-7.7-2.9-10.7,0L361.5,169.5c-4.8,4.8-1.3,12.9,5.3,12.9c6,0,1.2,0.7,106.1-102.9
			C475.8,76.5,475.8,71.7,472.9,68.8z"/>
	</g>
</g>
<g>
	<g>
		<linearGradient id="SVGID_5_" gradientUnits="userSpaceOnUse" x1="327.6716" y1="146.4106" x2="439.0796" y2="35.0026">
			<stop  offset="0" style="stop-color:#F43F2A"/>
			<stop  offset="1" style="stop-color:#E8744F"/>
		</linearGradient>
		<path class="st4" d="M439,34.9c-2.9-2.9-7.7-2.9-10.7,0L327.6,135.7c-2.9,2.9-2.9,7.7,0,10.7c1.5,1.5,3.4,2.2,5.3,2.2
			c6,0,1.2,0.7,106.1-102.9C442,42.7,442,37.9,439,34.9z"/>
	</g>
</g>
<g>
	<g>
		<linearGradient id="SVGID_6_" gradientUnits="userSpaceOnUse" x1="293.8284" y1="112.5702" x2="379.3163" y2="27.0823">
			<stop  offset="0" style="stop-color:#F43F2A"/>
			<stop  offset="1" style="stop-color:#E8744F"/>
		</linearGradient>
		<path class="st5" d="M379.3,27c-2.9-2.9-7.7-2.9-10.7,0l-74.8,74.8c-4.8,4.8-1.3,12.9,5.3,12.9c5.9,0,2.3-0.3,80.2-77
			C382.2,34.7,382.2,30,379.3,27z"/>
	</g>
</g>
<g>
	<g>
		<linearGradient id="SVGID_7_" gradientUnits="userSpaceOnUse" x1="259.9572" y1="78.698" x2="300.6706" y2="37.9846">
			<stop  offset="0" style="stop-color:#F43F2A"/>
			<stop  offset="1" style="stop-color:#E8744F"/>
		</linearGradient>
		<path class="st6" d="M300.6,38c-2.9-2.9-7.7-2.9-10.7,0l-30,30c-4.8,4.8-1.3,12.9,5.3,12.9c5.6,0,5-2.9,35.4-32.3
			C303.6,45.7,303.6,40.9,300.6,38z"/>
	</g>
</g>
<g>
	<g>
		<linearGradient id="SVGID_8_" gradientUnits="userSpaceOnUse" x1="42.1809" y1="304.8587" x2="82.8938" y2="264.1458">
			<stop  offset="0" style="stop-color:#F43F2A"/>
			<stop  offset="1" style="stop-color:#E8744F"/>
		</linearGradient>
		<path class="st7" d="M82.9,264.1c-2.9-2.9-7.7-2.9-10.7,0l-30,30c-4.8,4.8-1.3,12.9,5.3,12.9c5.6,0,5-2.9,35.4-32.3
			C85.8,271.8,85.8,267.1,82.9,264.1z"/>
	</g>
</g>
<g>
	<g>
		<linearGradient id="SVGID_9_" gradientUnits="userSpaceOnUse" x1="73.0405" y1="477.1102" x2="184.4493" y2="365.7014">
			<stop  offset="0" style="stop-color:#F43F2A"/>
			<stop  offset="1" style="stop-color:#E8744F"/>
		</linearGradient>
		<path class="st8" d="M184.4,365.6c-2.9-2.9-7.7-2.9-10.7,0L73,466.4c-4.8,4.8-1.3,12.9,5.3,12.9c6,0,1.2,0.7,106.1-102.9
			C187.3,373.4,187.3,368.6,184.4,365.6z"/>
	</g>
</g>
<g>
	<g>
		<linearGradient id="SVGID_10_" gradientUnits="userSpaceOnUse" x1="132.8037" y1="485.0315" x2="218.2911" y2="399.5441">
			<stop  offset="0" style="stop-color:#F43F2A"/>
			<stop  offset="1" style="stop-color:#E8744F"/>
		</linearGradient>
		<path class="st9" d="M218.2,399.5c-2.9-2.9-7.7-2.9-10.7,0l-74.8,74.8c-4.8,4.8-1.3,12.9,5.3,12.9c5.9,0,2.3-0.3,80.2-77
			C221.2,407.2,221.2,402.4,218.2,399.5z"/>
	</g>
</g>
<g>
	<g>
		<linearGradient id="SVGID_11_" gradientUnits="userSpaceOnUse" x1="211.392" y1="474.0682" x2="252.1046" y2="433.3556">
			<stop  offset="0" style="stop-color:#F43F2A"/>
			<stop  offset="1" style="stop-color:#E8744F"/>
		</linearGradient>
		<path class="st10" d="M252.1,433.3c-2.9-2.9-7.7-2.9-10.7,0l-30,30c-4.8,4.8-1.3,12.9,5.3,12.9c5.6,0,5-2.9,35.4-32.3
			C255,441,255,436.3,252.1,433.3z"/>
	</g>
</g>
<g>
	<g>
		<linearGradient id="SVGID_12_" gradientUnits="userSpaceOnUse" x1="-21.0419" y1="469.9395" x2="89.9339" y2="358.9636">
			<stop  offset="0" style="stop-color:#F43F2A"/>
			<stop  offset="1" style="stop-color:#E8744F"/>
		</linearGradient>
		<path class="st11" d="M96.4,496.9c-18.6,0-39,0-61.3,0c-10.5,0-19-8.5-19-19V288.3c0-4.2-3.4-7.5-7.5-7.5h0
			c-4.2,0-7.5,3.4-7.5,7.5v189.6c0,18.8,15.2,34.1,34.1,34.1h61.3c4.2,0,7.5-3.4,7.5-7.5v0C104,500.3,100.6,496.9,96.4,496.9z"/>
	</g>
</g>
<g>
	<g>
		<linearGradient id="SVGID_13_" gradientUnits="userSpaceOnUse" x1="63.8236" y1="452.4898" x2="252.7847" y2="263.5286">
			<stop  offset="0" style="stop-color:#F43F2A"/>
			<stop  offset="1" style="stop-color:#E8744F"/>
		</linearGradient>
		<path class="st12" d="M362.1,445.9c-11.3-20.5-27.3-14.1-35.2-28.5c-8.1-14.8,6.2-24.2-5.3-45c-11.3-20.5-27.3-14.1-35.2-28.5
			c-8.1-14.8,6.2-24.2-5.3-45c-11.6-21-24.4-14.1-35.1-28.4c-11.4-15.1-3-22.3-26.1-37.6c-13-8.6-34.7-2.5-45.2-9.4
			c-9.2-6-12.5-28.8-26.3-37.9c-14.7-9.8-37.2-4.2-45.1-9.5c-3.3-2.2-6.4-5.1-9.2-8.4c-23.8-28.9-70.2-13.2-71.4,23.5
			c-11.8,4.2-21.5,16.4-21.5,31.7v35.6c0,4.2,3.4,7.5,7.5,7.5h0c4.2,0,7.5-3.4,7.5-7.5v-35.6c0-16.9,20.5-25.3,32.4-13.4
			l255.2,255.2c10.9,10.9,4.7,28.9-9.1,31.9c-2.7,0.6,9.5,0.5-168.2,0.5c-4.2,0-7.5,3.4-7.5,7.5s3.4,7.5,7.5,7.5h163.9
			c18.8,0,27.4-13.8,27.5-13.9c22.4-5.7,37-15,43.2-27.5C365.5,461.8,365,451.2,362.1,445.9z M153.6,293.1
			C153.6,293,153.6,293,153.6,293.1c-0.3-0.3-0.4-0.4-0.6-0.6l-0.2-0.2c-0.3-0.3-0.7-0.7-1-1c-0.1-0.1-0.2-0.2-0.4-0.4
			c0,0-0.1-0.1-0.1-0.1c-0.1-0.1-0.2-0.2-0.3-0.3c-0.1-0.1-0.3-0.3-0.4-0.4c-0.1-0.1-0.3-0.3-0.4-0.4c0,0,0,0-0.1,0
			c-0.2-0.2-0.3-0.3-0.5-0.5c0,0-0.1-0.1-0.1-0.1c-0.1-0.1-0.3-0.3-0.4-0.4c-0.1-0.1-0.1-0.1-0.2-0.2c-0.1-0.1-0.2-0.2-0.3-0.3
			c-0.2-0.2-0.4-0.4-0.5-0.5c-0.1-0.1-0.2-0.2-0.3-0.3c-0.1-0.1-0.2-0.2-0.2-0.2l-0.4-0.4c-0.1-0.1-0.2-0.2-0.2-0.2
			c-0.1-0.1-0.3-0.3-0.4-0.4l-0.2-0.2c0,0,0,0-0.1,0c-0.1-0.1-0.2-0.2-0.3-0.3c-0.1-0.1-0.2-0.2-0.3-0.3c-0.1-0.1-0.2-0.2-0.3-0.3
			l-0.4-0.4c-0.1-0.1-0.1-0.1-0.2-0.2c-0.2-0.2-0.3-0.3-0.5-0.5c0,0-0.1-0.1-0.1-0.1c-0.2-0.2-0.3-0.3-0.5-0.5c0,0,0,0-0.1-0.1
			c-0.1-0.1-0.1-0.1-0.2-0.2c-0.2-0.2-0.3-0.3-0.5-0.5c-0.1-0.1-0.2-0.2-0.3-0.3c-0.1-0.1-0.1-0.1-0.2-0.2l-0.6-0.6
			c-0.1,0-0.1-0.1-0.1-0.1l-0.2-0.2c0,0-0.1-0.1-0.1-0.1c0,0-0.1-0.1-0.1-0.1l-0.4-0.4c0,0,0,0,0,0c-9.5-9.5-24.9-24.9-49.3-49.4
			c20.8,0.4,39.7,9.1,53.4,22.8c13.7,13.7,22.3,32.6,22.7,53.3C162.1,301.5,157.4,296.8,153.6,293.1z M182.2,321.6
			c0.5-3.9,0.8-7.8,0.9-11.8c68.5,41,68.3,37.9,69.4,43.1l9.1,48C253.1,392.5,190.5,329.9,182.2,321.6z M347.6,463.9
			c-2.4,4.9-8.5,11.3-23.2,16.6c0.8-9.7-2.7-19.3-9.9-26.6l-34-34l-13.3-69.8c-1.2-6.1-4.9-11.5-10.3-14.6l-75.5-44.1
			c-9.2-47.9-54.7-81.2-103.8-74.4l-18.4-18.4c-5.9-5.9-13.4-9.4-21.3-10c1.8-12.8,13.1-21,24.9-21c7,0,14.1,2.9,19.5,9.5
			c12.6,15.4,21.9,16.1,36.9,16.8c21.1,1.1,22.9,2.7,31.2,20c10.5,21.7,16.5,27.2,44.1,28.5c6.6,0.3,13.5,0.7,16.9,2.9
			c18.2,12,8.5,15.7,22.4,34.1c13.8,18.4,25.7,11.6,34,26.6c8.1,14.8-6.2,24.2,5.3,45c11.3,20.5,27.3,14.1,35.2,28.5
			c8.1,14.8-6.2,24.2,5.3,45c11.4,20.6,26.9,14,35,28.1C349,453.8,350.3,458.4,347.6,463.9z"/>
	</g>
</g>
<g>
	<g>
		<linearGradient id="SVGID_14_" gradientUnits="userSpaceOnUse" x1="31.2179" y1="383.4426" x2="116.7043" y2="297.9563">
			<stop  offset="0" style="stop-color:#F43F2A"/>
			<stop  offset="1" style="stop-color:#E8744F"/>
		</linearGradient>
		<path class="st13" d="M116.7,298c-2.9-2.9-7.7-2.9-10.7,0l-68.2,68.2c-4.7,5.4-9.1,7.1-8.8,12.3c0.2,4.6,4.6,7.9,9,7
			c3.7-0.7,4.4-3.1,12-10.2l66.7-66.7C119.7,305.7,119.7,300.9,116.7,298z"/>
	</g>
</g>
<g>
	<g>
		<linearGradient id="SVGID_15_" gradientUnits="userSpaceOnUse" x1="39.137" y1="443.21" x2="150.548" y2="331.799">
			<stop  offset="0" style="stop-color:#F43F2A"/>
			<stop  offset="1" style="stop-color:#E8744F"/>
		</linearGradient>
		<path class="st14" d="M150.5,331.8c-2.9-2.9-7.7-2.9-10.7,0c-9.4,9.4-88.5,88.5-100.7,100.7c-2.9,2.9-2.9,7.7,0,10.7
			c3,3,7.7,2.9,10.7,0c20.1-20.1,77.7-77.7,100.7-100.7C153.5,339.5,153.5,334.7,150.5,331.8z"/>
	</g>
</g>
</svg>
